ISO-10303-21;
HEADER;
/* Generated by software containing ST-Developer
 * from STEP Tools, Inc. (www.steptools.com) 
 */
/* OPTION: using custom schema-name function */

FILE_DESCRIPTION(
/* description */ (''),
/* implementation_level */ '2;1');

FILE_NAME(
/* name */ 'boxes_membrures_inf',
/* time_stamp */ '2026-06-17T17:42:31+02:00',
/* author */ (''),
/* organization */ (''),
/* preprocessor_version */ 'ST-DEVELOPER v16.5',
/* originating_system */ 'Rhino 7.38',
/* authorisation */ '');

FILE_SCHEMA (('CONFIG_CONTROL_DESIGN'));
ENDSEC;

DATA;
#10=SHAPE_REPRESENTATION_RELATIONSHIP('','',#262,#13);
#11=MANIFOLD_SOLID_BREP('brep_1',#14);
#12=MANIFOLD_SOLID_BREP('brep_2',#15);
#13=ADVANCED_BREP_SHAPE_REPRESENTATION('brep_rep_0',(#11,#12,#276),#261);
#14=CLOSED_SHELL('',(#16,#17,#18,#19,#20,#21));
#15=CLOSED_SHELL('',(#22,#23,#24,#25,#26,#27));
#16=ADVANCED_FACE('',(#28),#164,.T.);
#17=ADVANCED_FACE('',(#29),#165,.T.);
#18=ADVANCED_FACE('',(#30),#166,.T.);
#19=ADVANCED_FACE('',(#31),#167,.T.);
#20=ADVANCED_FACE('',(#32),#168,.T.);
#21=ADVANCED_FACE('',(#33),#169,.T.);
#22=ADVANCED_FACE('',(#34),#170,.T.);
#23=ADVANCED_FACE('',(#35),#171,.T.);
#24=ADVANCED_FACE('',(#36),#172,.T.);
#25=ADVANCED_FACE('',(#37),#173,.T.);
#26=ADVANCED_FACE('',(#38),#174,.T.);
#27=ADVANCED_FACE('',(#39),#175,.T.);
#28=FACE_OUTER_BOUND('',#40,.T.);
#29=FACE_OUTER_BOUND('',#41,.T.);
#30=FACE_OUTER_BOUND('',#42,.T.);
#31=FACE_OUTER_BOUND('',#43,.T.);
#32=FACE_OUTER_BOUND('',#44,.T.);
#33=FACE_OUTER_BOUND('',#45,.T.);
#34=FACE_OUTER_BOUND('',#46,.T.);
#35=FACE_OUTER_BOUND('',#47,.T.);
#36=FACE_OUTER_BOUND('',#48,.T.);
#37=FACE_OUTER_BOUND('',#49,.T.);
#38=FACE_OUTER_BOUND('',#50,.T.);
#39=FACE_OUTER_BOUND('',#51,.T.);
#40=EDGE_LOOP('',(#52,#53,#54,#55));
#41=EDGE_LOOP('',(#56,#57,#58,#59));
#42=EDGE_LOOP('',(#60,#61,#62,#63));
#43=EDGE_LOOP('',(#64,#65,#66,#67));
#44=EDGE_LOOP('',(#68,#69,#70,#71));
#45=EDGE_LOOP('',(#72,#73,#74,#75));
#46=EDGE_LOOP('',(#76,#77,#78,#79));
#47=EDGE_LOOP('',(#80,#81,#82,#83));
#48=EDGE_LOOP('',(#84,#85,#86,#87));
#49=EDGE_LOOP('',(#88,#89,#90,#91));
#50=EDGE_LOOP('',(#92,#93,#94,#95));
#51=EDGE_LOOP('',(#96,#97,#98,#99));
#52=ORIENTED_EDGE('',*,*,#100,.T.);
#53=ORIENTED_EDGE('',*,*,#101,.T.);
#54=ORIENTED_EDGE('',*,*,#102,.F.);
#55=ORIENTED_EDGE('',*,*,#103,.F.);
#56=ORIENTED_EDGE('',*,*,#104,.T.);
#57=ORIENTED_EDGE('',*,*,#105,.T.);
#58=ORIENTED_EDGE('',*,*,#106,.F.);
#59=ORIENTED_EDGE('',*,*,#101,.F.);
#60=ORIENTED_EDGE('',*,*,#107,.T.);
#61=ORIENTED_EDGE('',*,*,#108,.T.);
#62=ORIENTED_EDGE('',*,*,#109,.F.);
#63=ORIENTED_EDGE('',*,*,#105,.F.);
#64=ORIENTED_EDGE('',*,*,#110,.T.);
#65=ORIENTED_EDGE('',*,*,#103,.T.);
#66=ORIENTED_EDGE('',*,*,#111,.F.);
#67=ORIENTED_EDGE('',*,*,#108,.F.);
#68=ORIENTED_EDGE('',*,*,#110,.F.);
#69=ORIENTED_EDGE('',*,*,#107,.F.);
#70=ORIENTED_EDGE('',*,*,#104,.F.);
#71=ORIENTED_EDGE('',*,*,#100,.F.);
#72=ORIENTED_EDGE('',*,*,#102,.T.);
#73=ORIENTED_EDGE('',*,*,#106,.T.);
#74=ORIENTED_EDGE('',*,*,#109,.T.);
#75=ORIENTED_EDGE('',*,*,#111,.T.);
#76=ORIENTED_EDGE('',*,*,#112,.T.);
#77=ORIENTED_EDGE('',*,*,#113,.T.);
#78=ORIENTED_EDGE('',*,*,#114,.F.);
#79=ORIENTED_EDGE('',*,*,#115,.F.);
#80=ORIENTED_EDGE('',*,*,#116,.T.);
#81=ORIENTED_EDGE('',*,*,#117,.T.);
#82=ORIENTED_EDGE('',*,*,#118,.F.);
#83=ORIENTED_EDGE('',*,*,#113,.F.);
#84=ORIENTED_EDGE('',*,*,#119,.T.);
#85=ORIENTED_EDGE('',*,*,#120,.T.);
#86=ORIENTED_EDGE('',*,*,#121,.F.);
#87=ORIENTED_EDGE('',*,*,#117,.F.);
#88=ORIENTED_EDGE('',*,*,#122,.T.);
#89=ORIENTED_EDGE('',*,*,#115,.T.);
#90=ORIENTED_EDGE('',*,*,#123,.F.);
#91=ORIENTED_EDGE('',*,*,#120,.F.);
#92=ORIENTED_EDGE('',*,*,#122,.F.);
#93=ORIENTED_EDGE('',*,*,#119,.F.);
#94=ORIENTED_EDGE('',*,*,#116,.F.);
#95=ORIENTED_EDGE('',*,*,#112,.F.);
#96=ORIENTED_EDGE('',*,*,#114,.T.);
#97=ORIENTED_EDGE('',*,*,#118,.T.);
#98=ORIENTED_EDGE('',*,*,#121,.T.);
#99=ORIENTED_EDGE('',*,*,#123,.T.);
#100=EDGE_CURVE('',#148,#149,#124,.T.);
#101=EDGE_CURVE('',#149,#150,#125,.T.);
#102=EDGE_CURVE('',#151,#150,#126,.T.);
#103=EDGE_CURVE('',#148,#151,#127,.T.);
#104=EDGE_CURVE('',#149,#152,#128,.T.);
#105=EDGE_CURVE('',#152,#153,#129,.T.);
#106=EDGE_CURVE('',#150,#153,#130,.T.);
#107=EDGE_CURVE('',#152,#154,#131,.T.);
#108=EDGE_CURVE('',#154,#155,#132,.T.);
#109=EDGE_CURVE('',#153,#155,#133,.T.);
#110=EDGE_CURVE('',#154,#148,#134,.T.);
#111=EDGE_CURVE('',#155,#151,#135,.T.);
#112=EDGE_CURVE('',#156,#157,#136,.T.);
#113=EDGE_CURVE('',#157,#158,#137,.T.);
#114=EDGE_CURVE('',#159,#158,#138,.T.);
#115=EDGE_CURVE('',#156,#159,#139,.T.);
#116=EDGE_CURVE('',#157,#160,#140,.T.);
#117=EDGE_CURVE('',#160,#161,#141,.T.);
#118=EDGE_CURVE('',#158,#161,#142,.T.);
#119=EDGE_CURVE('',#160,#162,#143,.T.);
#120=EDGE_CURVE('',#162,#163,#144,.T.);
#121=EDGE_CURVE('',#161,#163,#145,.T.);
#122=EDGE_CURVE('',#162,#156,#146,.T.);
#123=EDGE_CURVE('',#163,#159,#147,.T.);
#124=B_SPLINE_CURVE_WITH_KNOTS('',1,(#308,#309),.UNSPECIFIED.,.F.,.F.,(2,
2),(0.,93300.1253290387),.UNSPECIFIED.);
#125=B_SPLINE_CURVE_WITH_KNOTS('',1,(#310,#311),.UNSPECIFIED.,.F.,.F.,(2,
2),(0.,1982.04299652726),.UNSPECIFIED.);
#126=B_SPLINE_CURVE_WITH_KNOTS('',1,(#312,#313),.UNSPECIFIED.,.F.,.F.,(2,
2),(0.,93300.1253290387),.UNSPECIFIED.);
#127=B_SPLINE_CURVE_WITH_KNOTS('',1,(#314,#315),.UNSPECIFIED.,.F.,.F.,(2,
2),(0.,1982.04299652726),.UNSPECIFIED.);
#128=B_SPLINE_CURVE_WITH_KNOTS('',1,(#316,#317),.UNSPECIFIED.,.F.,.F.,(2,
2),(93300.1253290387,94255.5339770023),.UNSPECIFIED.);
#129=B_SPLINE_CURVE_WITH_KNOTS('',1,(#318,#319),.UNSPECIFIED.,.F.,.F.,(2,
2),(0.,1982.04299652726),.UNSPECIFIED.);
#130=B_SPLINE_CURVE_WITH_KNOTS('',1,(#320,#321),.UNSPECIFIED.,.F.,.F.,(2,
2),(93300.1253290387,94255.5339770023),.UNSPECIFIED.);
#131=B_SPLINE_CURVE_WITH_KNOTS('',1,(#322,#323),.UNSPECIFIED.,.F.,.F.,(2,
2),(94255.5339770023,187555.659306041),.UNSPECIFIED.);
#132=B_SPLINE_CURVE_WITH_KNOTS('',1,(#324,#325),.UNSPECIFIED.,.F.,.F.,(2,
2),(0.,1982.04299652726),.UNSPECIFIED.);
#133=B_SPLINE_CURVE_WITH_KNOTS('',1,(#326,#327),.UNSPECIFIED.,.F.,.F.,(2,
2),(94255.5339770023,187555.659306041),.UNSPECIFIED.);
#134=B_SPLINE_CURVE_WITH_KNOTS('',1,(#328,#329),.UNSPECIFIED.,.F.,.F.,(2,
2),(187555.659306041,188511.067954005),.UNSPECIFIED.);
#135=B_SPLINE_CURVE_WITH_KNOTS('',1,(#330,#331),.UNSPECIFIED.,.F.,.F.,(2,
2),(187555.659306041,188511.067954005),.UNSPECIFIED.);
#136=B_SPLINE_CURVE_WITH_KNOTS('',1,(#346,#347),.UNSPECIFIED.,.F.,.F.,(2,
2),(0.,93300.1253290387),.UNSPECIFIED.);
#137=B_SPLINE_CURVE_WITH_KNOTS('',1,(#348,#349),.UNSPECIFIED.,.F.,.F.,(2,
2),(0.,1982.04299652726),.UNSPECIFIED.);
#138=B_SPLINE_CURVE_WITH_KNOTS('',1,(#350,#351),.UNSPECIFIED.,.F.,.F.,(2,
2),(0.,93300.1253290387),.UNSPECIFIED.);
#139=B_SPLINE_CURVE_WITH_KNOTS('',1,(#352,#353),.UNSPECIFIED.,.F.,.F.,(2,
2),(0.,1982.04299652726),.UNSPECIFIED.);
#140=B_SPLINE_CURVE_WITH_KNOTS('',1,(#354,#355),.UNSPECIFIED.,.F.,.F.,(2,
2),(93300.1253290387,94255.5339770023),.UNSPECIFIED.);
#141=B_SPLINE_CURVE_WITH_KNOTS('',1,(#356,#357),.UNSPECIFIED.,.F.,.F.,(2,
2),(0.,1982.04299652726),.UNSPECIFIED.);
#142=B_SPLINE_CURVE_WITH_KNOTS('',1,(#358,#359),.UNSPECIFIED.,.F.,.F.,(2,
2),(93300.1253290387,94255.5339770023),.UNSPECIFIED.);
#143=B_SPLINE_CURVE_WITH_KNOTS('',1,(#360,#361),.UNSPECIFIED.,.F.,.F.,(2,
2),(94255.5339770023,187555.659306041),.UNSPECIFIED.);
#144=B_SPLINE_CURVE_WITH_KNOTS('',1,(#362,#363),.UNSPECIFIED.,.F.,.F.,(2,
2),(0.,1982.04299652726),.UNSPECIFIED.);
#145=B_SPLINE_CURVE_WITH_KNOTS('',1,(#364,#365),.UNSPECIFIED.,.F.,.F.,(2,
2),(94255.5339770023,187555.659306041),.UNSPECIFIED.);
#146=B_SPLINE_CURVE_WITH_KNOTS('',1,(#366,#367),.UNSPECIFIED.,.F.,.F.,(2,
2),(187555.659306041,188511.067954005),.UNSPECIFIED.);
#147=B_SPLINE_CURVE_WITH_KNOTS('',1,(#368,#369),.UNSPECIFIED.,.F.,.F.,(2,
2),(187555.659306041,188511.067954005),.UNSPECIFIED.);
#148=VERTEX_POINT('',#300);
#149=VERTEX_POINT('',#301);
#150=VERTEX_POINT('',#302);
#151=VERTEX_POINT('',#303);
#152=VERTEX_POINT('',#304);
#153=VERTEX_POINT('',#305);
#154=VERTEX_POINT('',#306);
#155=VERTEX_POINT('',#307);
#156=VERTEX_POINT('',#338);
#157=VERTEX_POINT('',#339);
#158=VERTEX_POINT('',#340);
#159=VERTEX_POINT('',#341);
#160=VERTEX_POINT('',#342);
#161=VERTEX_POINT('',#343);
#162=VERTEX_POINT('',#344);
#163=VERTEX_POINT('',#345);
#164=PLANE('',#264);
#165=PLANE('',#265);
#166=PLANE('',#266);
#167=PLANE('',#267);
#168=PLANE('',#268);
#169=PLANE('',#269);
#170=PLANE('',#270);
#171=PLANE('',#271);
#172=PLANE('',#272);
#173=PLANE('',#273);
#174=PLANE('',#274);
#175=PLANE('',#275);
#176=SHAPE_DEFINITION_REPRESENTATION(#177,#262);
#177=PRODUCT_DEFINITION_SHAPE('Document','',#179);
#178=PRODUCT_DEFINITION_CONTEXT('3D Mechanical Parts',#251,'design');
#179=PRODUCT_DEFINITION('A','First version',#221,#178);
#180=DATE_TIME_ROLE('classification_date');
#181=DATE_TIME_ROLE('creation_date');
#182=APPLIED_DATE_AND_TIME_ASSIGNMENT(#206,#180,(#185));
#183=APPLIED_DATE_AND_TIME_ASSIGNMENT(#208,#181,(#179));
#184=SECURITY_CLASSIFICATION_LEVEL('unclassified');
#185=SECURITY_CLASSIFICATION('A','Security for version',#184);
#186=APPLIED_SECURITY_CLASSIFICATION_ASSIGNMENT(#185,(#221));
#187=APPROVAL_ROLE('Version approval');
#188=APPROVAL_ROLE('Version Security approval');
#189=APPROVAL_ROLE('Definition approval');
#190=APPROVAL_PERSON_ORGANIZATION(#239,#215,#187);
#191=APPROVAL_PERSON_ORGANIZATION(#240,#216,#188);
#192=APPROVAL_PERSON_ORGANIZATION(#243,#217,#189);
#193=COORDINATED_UNIVERSAL_TIME_OFFSET(5,0,.BEHIND.);
#194=LOCAL_TIME(0,0,0.,#193);
#195=LOCAL_TIME(0,0,0.,#193);
#196=LOCAL_TIME(0,0,0.,#193);
#197=LOCAL_TIME(0,0,0.,#193);
#198=LOCAL_TIME(0,0,0.,#193);
#199=CALENDAR_DATE(1999,1,1);
#200=CALENDAR_DATE(1999,1,1);
#201=CALENDAR_DATE(1999,1,1);
#202=CALENDAR_DATE(1999,1,1);
#203=CALENDAR_DATE(1999,1,1);
#204=DATE_AND_TIME(#199,#194);
#205=DATE_AND_TIME(#200,#195);
#206=DATE_AND_TIME(#201,#196);
#207=DATE_AND_TIME(#202,#197);
#208=DATE_AND_TIME(#203,#198);
#209=APPROVAL_DATE_TIME(#204,#215);
#210=APPROVAL_DATE_TIME(#205,#216);
#211=APPROVAL_DATE_TIME(#207,#217);
#212=APPROVAL_STATUS('not_yet_approved');
#213=APPROVAL_STATUS('not_yet_approved');
#214=APPROVAL_STATUS('approved');
#215=APPROVAL(#212,'Version approval');
#216=APPROVAL(#213,'Version Security approval');
#217=APPROVAL(#214,'Definition approval');
#218=APPLIED_APPROVAL_ASSIGNMENT(#215,(#221));
#219=APPLIED_APPROVAL_ASSIGNMENT(#216,(#185));
#220=APPLIED_APPROVAL_ASSIGNMENT(#217,(#179));
#221=PRODUCT_DEFINITION_FORMATION_WITH_SPECIFIED_SOURCE('A',
'First version',#253,.MADE.);
#222=PERSON_AND_ORGANIZATION_ROLE('design_owner');
#223=PERSON_AND_ORGANIZATION_ROLE('creator');
#224=PERSON_AND_ORGANIZATION_ROLE('design_supplier');
#225=PERSON_AND_ORGANIZATION_ROLE('classification_officer');
#226=PERSON_AND_ORGANIZATION_ROLE('creator');
#227=ORGANIZATION('STI','lab','lab');
#228=ORGANIZATION('STI','unknown','unknown');
#229=ORGANIZATION('STI','unknown','unknown');
#230=ORGANIZATION('STI','unknown','unknown');
#231=ORGANIZATION('STI','unknown','unknown');
#232=ORGANIZATION('STI','unknown','unknown');
#233=ORGANIZATION('STI','unknown','unknown');
#234=PERSON('1','Box','vc60',$,$,$);
#235=PERSON('2','last','first',$,$,$);
#236=PERSON('3','President','Mr.',$,$,$);
#237=PERSON_AND_ORGANIZATION(#234,#227);
#238=PERSON_AND_ORGANIZATION(#235,#228);
#239=PERSON_AND_ORGANIZATION(#236,#229);
#240=PERSON_AND_ORGANIZATION(#236,#230);
#241=PERSON_AND_ORGANIZATION(#236,#231);
#242=PERSON_AND_ORGANIZATION(#235,#232);
#243=PERSON_AND_ORGANIZATION(#236,#233);
#244=APPLIED_PERSON_AND_ORGANIZATION_ASSIGNMENT(#237,#222,(#253));
#245=APPLIED_PERSON_AND_ORGANIZATION_ASSIGNMENT(#238,#223,(#221));
#246=APPLIED_PERSON_AND_ORGANIZATION_ASSIGNMENT(#238,#224,(#221));
#247=APPLIED_PERSON_AND_ORGANIZATION_ASSIGNMENT(#241,#225,(#185));
#248=APPLIED_PERSON_AND_ORGANIZATION_ASSIGNMENT(#242,#226,(#179));
#249=PRODUCT_RELATED_PRODUCT_CATEGORY('detail','detail',(#253));
#250=APPLICATION_PROTOCOL_DEFINITION('International Standard',
'config_control_design',1994,#251);
#251=APPLICATION_CONTEXT(
'configuration controlled 3d designs of mechanical parts and assemblie
s');
#252=PRODUCT_CONTEXT('3D Mechanical Parts',#251,'mechanical');
#253=PRODUCT('Document','Document','',(#252));
#254=(
LENGTH_UNIT()
NAMED_UNIT(*)
SI_UNIT(.MILLI.,.METRE.)
);
#255=(
NAMED_UNIT(*)
PLANE_ANGLE_UNIT()
SI_UNIT($,.RADIAN.)
);
#256=DIMENSIONAL_EXPONENTS(0.,0.,0.,0.,0.,0.,0.);
#257=PLANE_ANGLE_MEASURE_WITH_UNIT(PLANE_ANGLE_MEASURE(0.01745329252),#255);
#258=(
CONVERSION_BASED_UNIT('DEGREES',#257)
NAMED_UNIT(#256)
PLANE_ANGLE_UNIT()
);
#259=(
NAMED_UNIT(*)
SI_UNIT($,.STERADIAN.)
SOLID_ANGLE_UNIT()
);
#260=UNCERTAINTY_MEASURE_WITH_UNIT(LENGTH_MEASURE(0.001),#254,
'DISTANCE_ACCURACY_VALUE',
'Maximum model space distance between geometric entities at asserted c
onnectivities');
#261=(
GEOMETRIC_REPRESENTATION_CONTEXT(3)
GLOBAL_UNCERTAINTY_ASSIGNED_CONTEXT((#260))
GLOBAL_UNIT_ASSIGNED_CONTEXT((#259,#258,#254))
REPRESENTATION_CONTEXT('ID1','3D')
);
#262=SHAPE_REPRESENTATION('Document',(#263,#276),#261);
#263=AXIS2_PLACEMENT_3D('',#293,#277,#278);
#264=AXIS2_PLACEMENT_3D('',#294,#279,$);
#265=AXIS2_PLACEMENT_3D('',#295,#280,$);
#266=AXIS2_PLACEMENT_3D('',#296,#281,$);
#267=AXIS2_PLACEMENT_3D('',#297,#282,$);
#268=AXIS2_PLACEMENT_3D('',#298,#283,$);
#269=AXIS2_PLACEMENT_3D('',#299,#284,$);
#270=AXIS2_PLACEMENT_3D('',#332,#285,$);
#271=AXIS2_PLACEMENT_3D('',#333,#286,$);
#272=AXIS2_PLACEMENT_3D('',#334,#287,$);
#273=AXIS2_PLACEMENT_3D('',#335,#288,$);
#274=AXIS2_PLACEMENT_3D('',#336,#289,$);
#275=AXIS2_PLACEMENT_3D('',#337,#290,$);
#276=AXIS2_PLACEMENT_3D('',#370,#291,#292);
#277=DIRECTION('',(0.,0.,1.));
#278=DIRECTION('',(1.,0.,0.));
#279=DIRECTION('',(0.,0.,1.));
#280=DIRECTION('',(1.,0.,0.));
#281=DIRECTION('',(0.,0.,-1.));
#282=DIRECTION('',(-1.,0.,0.));
#283=DIRECTION('',(0.,-1.,0.));
#284=DIRECTION('',(0.,1.,0.));
#285=DIRECTION('',(0.,0.,1.));
#286=DIRECTION('',(1.,0.,0.));
#287=DIRECTION('',(0.,0.,-1.));
#288=DIRECTION('',(-1.,0.,0.));
#289=DIRECTION('',(0.,-1.,0.));
#290=DIRECTION('',(0.,1.,0.));
#291=DIRECTION('',(0.,0.,1.));
#292=DIRECTION('',(1.,0.,0.));
#293=CARTESIAN_POINT('',(0.,0.,0.));
#294=CARTESIAN_POINT('',(-46883.2295715063,-1535.51121729534,-4311.75369354568));
#295=CARTESIAN_POINT('',(46416.8957575324,-1535.51121729534,-4311.75369354568));
#296=CARTESIAN_POINT('',(46416.8957575324,-1535.51121729534,-5267.16234150938));
#297=CARTESIAN_POINT('',(-46883.2295715063,-1535.51121729534,-5267.16234150938));
#298=CARTESIAN_POINT('',(-46883.2295715063,-1535.51121729534,-4311.75369354568));
#299=CARTESIAN_POINT('',(-46883.2295715063,446.531779231915,-4311.75369354568));
#300=CARTESIAN_POINT('',(-46883.2295715063,-1535.51121729534,-4311.75369354568));
#301=CARTESIAN_POINT('',(46416.8957575324,-1535.51121729534,-4311.75369354568));
#302=CARTESIAN_POINT('',(46416.8957575324,446.531779231915,-4311.75369354568));
#303=CARTESIAN_POINT('',(-46883.2295715063,446.531779231915,-4311.75369354568));
#304=CARTESIAN_POINT('',(46416.8957575324,-1535.51121729534,-5267.16234150938));
#305=CARTESIAN_POINT('',(46416.8957575324,446.531779231915,-5267.16234150938));
#306=CARTESIAN_POINT('',(-46883.2295715063,-1535.51121729534,-5267.16234150938));
#307=CARTESIAN_POINT('',(-46883.2295715063,446.531779231915,-5267.16234150938));
#308=CARTESIAN_POINT('',(-46883.2295715063,-1535.51121729534,-4311.75369354568));
#309=CARTESIAN_POINT('',(46416.8957575324,-1535.51121729534,-4311.75369354568));
#310=CARTESIAN_POINT('',(46416.8957575324,-1535.51121729534,-4311.75369354568));
#311=CARTESIAN_POINT('',(46416.8957575324,446.531779231915,-4311.75369354568));
#312=CARTESIAN_POINT('',(-46883.2295715063,446.531779231915,-4311.75369354568));
#313=CARTESIAN_POINT('',(46416.8957575324,446.531779231915,-4311.75369354568));
#314=CARTESIAN_POINT('',(-46883.2295715063,-1535.51121729534,-4311.75369354568));
#315=CARTESIAN_POINT('',(-46883.2295715063,446.531779231915,-4311.75369354568));
#316=CARTESIAN_POINT('',(46416.8957575324,-1535.51121729534,-4311.75369354568));
#317=CARTESIAN_POINT('',(46416.8957575324,-1535.51121729534,-5267.16234150938));
#318=CARTESIAN_POINT('',(46416.8957575324,-1535.51121729534,-5267.16234150938));
#319=CARTESIAN_POINT('',(46416.8957575324,446.531779231915,-5267.16234150938));
#320=CARTESIAN_POINT('',(46416.8957575324,446.531779231915,-4311.75369354568));
#321=CARTESIAN_POINT('',(46416.8957575324,446.531779231915,-5267.16234150938));
#322=CARTESIAN_POINT('',(46416.8957575324,-1535.51121729534,-5267.16234150938));
#323=CARTESIAN_POINT('',(-46883.2295715063,-1535.51121729534,-5267.16234150938));
#324=CARTESIAN_POINT('',(-46883.2295715063,-1535.51121729534,-5267.16234150938));
#325=CARTESIAN_POINT('',(-46883.2295715063,446.531779231915,-5267.16234150938));
#326=CARTESIAN_POINT('',(46416.8957575324,446.531779231915,-5267.16234150938));
#327=CARTESIAN_POINT('',(-46883.2295715063,446.531779231915,-5267.16234150938));
#328=CARTESIAN_POINT('',(-46883.2295715063,-1535.51121729534,-5267.16234150938));
#329=CARTESIAN_POINT('',(-46883.2295715063,-1535.51121729534,-4311.75369354568));
#330=CARTESIAN_POINT('',(-46883.2295715063,446.531779231915,-5267.16234150938));
#331=CARTESIAN_POINT('',(-46883.2295715063,446.531779231915,-4311.75369354568));
#332=CARTESIAN_POINT('',(-46370.0031658641,-1535.51121729534,5352.17171555887));
#333=CARTESIAN_POINT('',(46930.1221631745,-1535.51121729534,5352.17171555887));
#334=CARTESIAN_POINT('',(46930.1221631745,-1535.51121729534,4396.76306759518));
#335=CARTESIAN_POINT('',(-46370.0031658641,-1535.51121729534,4396.76306759518));
#336=CARTESIAN_POINT('',(-46370.0031658641,-1535.51121729534,5352.17171555887));
#337=CARTESIAN_POINT('',(-46370.0031658641,446.531779231915,5352.17171555887));
#338=CARTESIAN_POINT('',(-46370.0031658641,-1535.51121729534,5352.17171555887));
#339=CARTESIAN_POINT('',(46930.1221631745,-1535.51121729534,5352.17171555887));
#340=CARTESIAN_POINT('',(46930.1221631745,446.531779231915,5352.17171555887));
#341=CARTESIAN_POINT('',(-46370.0031658641,446.531779231915,5352.17171555887));
#342=CARTESIAN_POINT('',(46930.1221631745,-1535.51121729534,4396.76306759518));
#343=CARTESIAN_POINT('',(46930.1221631745,446.531779231915,4396.76306759518));
#344=CARTESIAN_POINT('',(-46370.0031658641,-1535.51121729534,4396.76306759518));
#345=CARTESIAN_POINT('',(-46370.0031658641,446.531779231915,4396.76306759518));
#346=CARTESIAN_POINT('',(-46370.0031658641,-1535.51121729534,5352.17171555887));
#347=CARTESIAN_POINT('',(46930.1221631745,-1535.51121729534,5352.17171555887));
#348=CARTESIAN_POINT('',(46930.1221631745,-1535.51121729534,5352.17171555887));
#349=CARTESIAN_POINT('',(46930.1221631745,446.531779231915,5352.17171555887));
#350=CARTESIAN_POINT('',(-46370.0031658641,446.531779231915,5352.17171555887));
#351=CARTESIAN_POINT('',(46930.1221631745,446.531779231915,5352.17171555887));
#352=CARTESIAN_POINT('',(-46370.0031658641,-1535.51121729534,5352.17171555887));
#353=CARTESIAN_POINT('',(-46370.0031658641,446.531779231915,5352.17171555887));
#354=CARTESIAN_POINT('',(46930.1221631745,-1535.51121729534,5352.17171555887));
#355=CARTESIAN_POINT('',(46930.1221631745,-1535.51121729534,4396.76306759518));
#356=CARTESIAN_POINT('',(46930.1221631745,-1535.51121729534,4396.76306759518));
#357=CARTESIAN_POINT('',(46930.1221631745,446.531779231915,4396.76306759518));
#358=CARTESIAN_POINT('',(46930.1221631745,446.531779231915,5352.17171555887));
#359=CARTESIAN_POINT('',(46930.1221631745,446.531779231915,4396.76306759518));
#360=CARTESIAN_POINT('',(46930.1221631745,-1535.51121729534,4396.76306759518));
#361=CARTESIAN_POINT('',(-46370.0031658641,-1535.51121729534,4396.76306759518));
#362=CARTESIAN_POINT('',(-46370.0031658641,-1535.51121729534,4396.76306759518));
#363=CARTESIAN_POINT('',(-46370.0031658641,446.531779231915,4396.76306759518));
#364=CARTESIAN_POINT('',(46930.1221631745,446.531779231915,4396.76306759518));
#365=CARTESIAN_POINT('',(-46370.0031658641,446.531779231915,4396.76306759518));
#366=CARTESIAN_POINT('',(-46370.0031658641,-1535.51121729534,4396.76306759518));
#367=CARTESIAN_POINT('',(-46370.0031658641,-1535.51121729534,5352.17171555887));
#368=CARTESIAN_POINT('',(-46370.0031658641,446.531779231915,4396.76306759518));
#369=CARTESIAN_POINT('',(-46370.0031658641,446.531779231915,5352.17171555887));
#370=CARTESIAN_POINT('',(0.,0.,0.));
ENDSEC;
END-ISO-10303-21;
