ISO-10303-21;
HEADER;
/* Generated by software containing ST-Developer
 * from STEP Tools, Inc. (www.steptools.com) 
 */
/* OPTION: using custom schema-name function */

FILE_DESCRIPTION(
/* description */ (''),
/* implementation_level */ '2;1');

FILE_NAME(
/* name */ 'bounding_box_acier_tablier',
/* time_stamp */ '2026-06-17T16:47:27+02:00',
/* author */ (''),
/* organization */ (''),
/* preprocessor_version */ 'ST-DEVELOPER v16.5',
/* originating_system */ 'Rhino 7.38',
/* authorisation */ '');

FILE_SCHEMA (('CONFIG_CONTROL_DESIGN'));
ENDSEC;

DATA;
#10=SHAPE_REPRESENTATION_RELATIONSHIP('','',#654,#12);
#11=MANIFOLD_SOLID_BREP('brep_1',#13);
#12=ADVANCED_BREP_SHAPE_REPRESENTATION('brep_rep_0',(#11,#692),#653);
#13=CLOSED_SHELL('',(#14,#15,#16,#17,#18,#19,#20,#21,#22,#23,#24,#25,#26,
#27,#28,#29,#30,#31,#32,#33,#34,#35,#36,#37,#38,#39,#40,#41,#42,#43,#44,
#45,#46,#47,#48,#49,#50,#51));
#14=ADVANCED_FACE('',(#52),#532,.T.);
#15=ADVANCED_FACE('',(#53),#533,.T.);
#16=ADVANCED_FACE('',(#54),#558,.T.);
#17=ADVANCED_FACE('',(#55),#559,.T.);
#18=ADVANCED_FACE('',(#56),#534,.T.);
#19=ADVANCED_FACE('',(#57),#535,.T.);
#20=ADVANCED_FACE('',(#58),#536,.T.);
#21=ADVANCED_FACE('',(#59),#560,.T.);
#22=ADVANCED_FACE('',(#60),#561,.T.);
#23=ADVANCED_FACE('',(#61),#537,.T.);
#24=ADVANCED_FACE('',(#62),#538,.T.);
#25=ADVANCED_FACE('',(#63),#562,.T.);
#26=ADVANCED_FACE('',(#64),#563,.T.);
#27=ADVANCED_FACE('',(#65),#539,.T.);
#28=ADVANCED_FACE('',(#66),#540,.T.);
#29=ADVANCED_FACE('',(#67),#541,.T.);
#30=ADVANCED_FACE('',(#68),#542,.T.);
#31=ADVANCED_FACE('',(#69),#564,.T.);
#32=ADVANCED_FACE('',(#70),#544,.T.);
#33=ADVANCED_FACE('',(#71),#546,.T.);
#34=ADVANCED_FACE('',(#72),#548,.T.);
#35=ADVANCED_FACE('',(#73),#550,.T.);
#36=ADVANCED_FACE('',(#74),#552,.T.);
#37=ADVANCED_FACE('',(#75),#554,.T.);
#38=ADVANCED_FACE('',(#76),#565,.T.);
#39=ADVANCED_FACE('',(#77),#545,.T.);
#40=ADVANCED_FACE('',(#78),#549,.T.);
#41=ADVANCED_FACE('',(#79),#549,.T.);
#42=ADVANCED_FACE('',(#80),#553,.T.);
#43=ADVANCED_FACE('',(#81),#555,.T.);
#44=ADVANCED_FACE('',(#82),#556,.T.);
#45=ADVANCED_FACE('',(#83),#557,.T.);
#46=ADVANCED_FACE('',(#84),#566,.T.);
#47=ADVANCED_FACE('',(#85),#567,.T.);
#48=ADVANCED_FACE('',(#86),#543,.T.);
#49=ADVANCED_FACE('',(#87),#547,.T.);
#50=ADVANCED_FACE('',(#88),#547,.T.);
#51=ADVANCED_FACE('',(#89),#551,.T.);
#52=FACE_OUTER_BOUND('',#90,.T.);
#53=FACE_OUTER_BOUND('',#91,.T.);
#54=FACE_OUTER_BOUND('',#92,.T.);
#55=FACE_OUTER_BOUND('',#93,.T.);
#56=FACE_OUTER_BOUND('',#94,.T.);
#57=FACE_OUTER_BOUND('',#95,.T.);
#58=FACE_OUTER_BOUND('',#96,.T.);
#59=FACE_OUTER_BOUND('',#97,.T.);
#60=FACE_OUTER_BOUND('',#98,.T.);
#61=FACE_OUTER_BOUND('',#99,.T.);
#62=FACE_OUTER_BOUND('',#100,.T.);
#63=FACE_OUTER_BOUND('',#101,.T.);
#64=FACE_OUTER_BOUND('',#102,.T.);
#65=FACE_OUTER_BOUND('',#103,.T.);
#66=FACE_OUTER_BOUND('',#104,.T.);
#67=FACE_OUTER_BOUND('',#105,.T.);
#68=FACE_OUTER_BOUND('',#106,.T.);
#69=FACE_OUTER_BOUND('',#107,.T.);
#70=FACE_OUTER_BOUND('',#108,.T.);
#71=FACE_OUTER_BOUND('',#109,.T.);
#72=FACE_OUTER_BOUND('',#110,.T.);
#73=FACE_OUTER_BOUND('',#111,.T.);
#74=FACE_OUTER_BOUND('',#112,.T.);
#75=FACE_OUTER_BOUND('',#113,.T.);
#76=FACE_OUTER_BOUND('',#114,.T.);
#77=FACE_OUTER_BOUND('',#115,.T.);
#78=FACE_OUTER_BOUND('',#116,.T.);
#79=FACE_OUTER_BOUND('',#117,.T.);
#80=FACE_OUTER_BOUND('',#118,.T.);
#81=FACE_OUTER_BOUND('',#119,.T.);
#82=FACE_OUTER_BOUND('',#120,.T.);
#83=FACE_OUTER_BOUND('',#121,.T.);
#84=FACE_OUTER_BOUND('',#122,.T.);
#85=FACE_OUTER_BOUND('',#123,.T.);
#86=FACE_OUTER_BOUND('',#124,.T.);
#87=FACE_OUTER_BOUND('',#125,.T.);
#88=FACE_OUTER_BOUND('',#126,.T.);
#89=FACE_OUTER_BOUND('',#127,.T.);
#90=EDGE_LOOP('',(#128,#129,#130,#131,#132,#133));
#91=EDGE_LOOP('',(#134,#135,#136,#137,#138,#139));
#92=EDGE_LOOP('',(#140,#141,#142,#143));
#93=EDGE_LOOP('',(#144,#145,#146,#147));
#94=EDGE_LOOP('',(#148,#149,#150,#151));
#95=EDGE_LOOP('',(#152,#153,#154,#155));
#96=EDGE_LOOP('',(#156,#157,#158,#159));
#97=EDGE_LOOP('',(#160,#161,#162,#163));
#98=EDGE_LOOP('',(#164,#165,#166,#167));
#99=EDGE_LOOP('',(#168,#169,#170,#171,#172,#173));
#100=EDGE_LOOP('',(#174,#175,#176,#177,#178,#179));
#101=EDGE_LOOP('',(#180,#181,#182,#183));
#102=EDGE_LOOP('',(#184,#185,#186,#187));
#103=EDGE_LOOP('',(#188,#189,#190,#191));
#104=EDGE_LOOP('',(#192,#193,#194,#195));
#105=EDGE_LOOP('',(#196,#197,#198,#199));
#106=EDGE_LOOP('',(#200,#201,#202,#203));
#107=EDGE_LOOP('',(#204,#205,#206,#207));
#108=EDGE_LOOP('',(#208,#209,#210,#211));
#109=EDGE_LOOP('',(#212,#213,#214,#215));
#110=EDGE_LOOP('',(#216,#217,#218,#219));
#111=EDGE_LOOP('',(#220,#221,#222,#223));
#112=EDGE_LOOP('',(#224,#225,#226,#227));
#113=EDGE_LOOP('',(#228,#229,#230,#231));
#114=EDGE_LOOP('',(#232,#233,#234,#235));
#115=EDGE_LOOP('',(#236,#237,#238,#239,#240,#241,#242,#243));
#116=EDGE_LOOP('',(#244,#245,#246,#247));
#117=EDGE_LOOP('',(#248,#249,#250,#251));
#118=EDGE_LOOP('',(#252,#253,#254,#255,#256,#257,#258,#259));
#119=EDGE_LOOP('',(#260,#261,#262,#263));
#120=EDGE_LOOP('',(#264,#265,#266,#267));
#121=EDGE_LOOP('',(#268,#269,#270,#271));
#122=EDGE_LOOP('',(#272,#273,#274,#275));
#123=EDGE_LOOP('',(#276,#277,#278,#279));
#124=EDGE_LOOP('',(#280,#281,#282,#283,#284,#285,#286,#287));
#125=EDGE_LOOP('',(#288,#289,#290,#291));
#126=EDGE_LOOP('',(#292,#293,#294,#295));
#127=EDGE_LOOP('',(#296,#297,#298,#299,#300,#301,#302,#303));
#128=ORIENTED_EDGE('',*,*,#380,.T.);
#129=ORIENTED_EDGE('',*,*,#381,.T.);
#130=ORIENTED_EDGE('',*,*,#382,.T.);
#131=ORIENTED_EDGE('',*,*,#309,.F.);
#132=ORIENTED_EDGE('',*,*,#305,.F.);
#133=ORIENTED_EDGE('',*,*,#308,.T.);
#134=ORIENTED_EDGE('',*,*,#383,.T.);
#135=ORIENTED_EDGE('',*,*,#388,.T.);
#136=ORIENTED_EDGE('',*,*,#307,.T.);
#137=ORIENTED_EDGE('',*,*,#389,.F.);
#138=ORIENTED_EDGE('',*,*,#385,.T.);
#139=ORIENTED_EDGE('',*,*,#384,.T.);
#140=ORIENTED_EDGE('',*,*,#308,.F.);
#141=ORIENTED_EDGE('',*,*,#304,.T.);
#142=ORIENTED_EDGE('',*,*,#388,.F.);
#143=ORIENTED_EDGE('',*,*,#386,.F.);
#144=ORIENTED_EDGE('',*,*,#387,.T.);
#145=ORIENTED_EDGE('',*,*,#389,.T.);
#146=ORIENTED_EDGE('',*,*,#306,.F.);
#147=ORIENTED_EDGE('',*,*,#309,.T.);
#148=ORIENTED_EDGE('',*,*,#310,.T.);
#149=ORIENTED_EDGE('',*,*,#311,.T.);
#150=ORIENTED_EDGE('',*,*,#312,.F.);
#151=ORIENTED_EDGE('',*,*,#313,.F.);
#152=ORIENTED_EDGE('',*,*,#314,.T.);
#153=ORIENTED_EDGE('',*,*,#305,.T.);
#154=ORIENTED_EDGE('',*,*,#315,.F.);
#155=ORIENTED_EDGE('',*,*,#311,.F.);
#156=ORIENTED_EDGE('',*,*,#316,.T.);
#157=ORIENTED_EDGE('',*,*,#313,.T.);
#158=ORIENTED_EDGE('',*,*,#317,.F.);
#159=ORIENTED_EDGE('',*,*,#307,.F.);
#160=ORIENTED_EDGE('',*,*,#316,.F.);
#161=ORIENTED_EDGE('',*,*,#304,.F.);
#162=ORIENTED_EDGE('',*,*,#314,.F.);
#163=ORIENTED_EDGE('',*,*,#310,.F.);
#164=ORIENTED_EDGE('',*,*,#312,.T.);
#165=ORIENTED_EDGE('',*,*,#315,.T.);
#166=ORIENTED_EDGE('',*,*,#306,.T.);
#167=ORIENTED_EDGE('',*,*,#317,.T.);
#168=ORIENTED_EDGE('',*,*,#360,.T.);
#169=ORIENTED_EDGE('',*,*,#368,.T.);
#170=ORIENTED_EDGE('',*,*,#318,.T.);
#171=ORIENTED_EDGE('',*,*,#369,.F.);
#172=ORIENTED_EDGE('',*,*,#362,.T.);
#173=ORIENTED_EDGE('',*,*,#361,.T.);
#174=ORIENTED_EDGE('',*,*,#363,.T.);
#175=ORIENTED_EDGE('',*,*,#364,.T.);
#176=ORIENTED_EDGE('',*,*,#365,.T.);
#177=ORIENTED_EDGE('',*,*,#323,.F.);
#178=ORIENTED_EDGE('',*,*,#320,.F.);
#179=ORIENTED_EDGE('',*,*,#322,.T.);
#180=ORIENTED_EDGE('',*,*,#322,.F.);
#181=ORIENTED_EDGE('',*,*,#319,.T.);
#182=ORIENTED_EDGE('',*,*,#368,.F.);
#183=ORIENTED_EDGE('',*,*,#366,.F.);
#184=ORIENTED_EDGE('',*,*,#367,.T.);
#185=ORIENTED_EDGE('',*,*,#369,.T.);
#186=ORIENTED_EDGE('',*,*,#321,.F.);
#187=ORIENTED_EDGE('',*,*,#323,.T.);
#188=ORIENTED_EDGE('',*,*,#324,.T.);
#189=ORIENTED_EDGE('',*,*,#325,.T.);
#190=ORIENTED_EDGE('',*,*,#326,.F.);
#191=ORIENTED_EDGE('',*,*,#327,.F.);
#192=ORIENTED_EDGE('',*,*,#328,.T.);
#193=ORIENTED_EDGE('',*,*,#329,.T.);
#194=ORIENTED_EDGE('',*,*,#330,.F.);
#195=ORIENTED_EDGE('',*,*,#325,.F.);
#196=ORIENTED_EDGE('',*,*,#331,.T.);
#197=ORIENTED_EDGE('',*,*,#332,.T.);
#198=ORIENTED_EDGE('',*,*,#333,.F.);
#199=ORIENTED_EDGE('',*,*,#329,.F.);
#200=ORIENTED_EDGE('',*,*,#334,.T.);
#201=ORIENTED_EDGE('',*,*,#327,.T.);
#202=ORIENTED_EDGE('',*,*,#335,.F.);
#203=ORIENTED_EDGE('',*,*,#332,.F.);
#204=ORIENTED_EDGE('',*,*,#334,.F.);
#205=ORIENTED_EDGE('',*,*,#331,.F.);
#206=ORIENTED_EDGE('',*,*,#328,.F.);
#207=ORIENTED_EDGE('',*,*,#324,.F.);
#208=ORIENTED_EDGE('',*,*,#330,.T.);
#209=ORIENTED_EDGE('',*,*,#339,.T.);
#210=ORIENTED_EDGE('',*,*,#340,.F.);
#211=ORIENTED_EDGE('',*,*,#336,.F.);
#212=ORIENTED_EDGE('',*,*,#335,.T.);
#213=ORIENTED_EDGE('',*,*,#338,.T.);
#214=ORIENTED_EDGE('',*,*,#343,.F.);
#215=ORIENTED_EDGE('',*,*,#341,.F.);
#216=ORIENTED_EDGE('',*,*,#340,.T.);
#217=ORIENTED_EDGE('',*,*,#347,.T.);
#218=ORIENTED_EDGE('',*,*,#348,.F.);
#219=ORIENTED_EDGE('',*,*,#344,.F.);
#220=ORIENTED_EDGE('',*,*,#343,.T.);
#221=ORIENTED_EDGE('',*,*,#346,.T.);
#222=ORIENTED_EDGE('',*,*,#351,.F.);
#223=ORIENTED_EDGE('',*,*,#349,.F.);
#224=ORIENTED_EDGE('',*,*,#348,.T.);
#225=ORIENTED_EDGE('',*,*,#355,.T.);
#226=ORIENTED_EDGE('',*,*,#356,.F.);
#227=ORIENTED_EDGE('',*,*,#352,.F.);
#228=ORIENTED_EDGE('',*,*,#351,.T.);
#229=ORIENTED_EDGE('',*,*,#354,.T.);
#230=ORIENTED_EDGE('',*,*,#359,.F.);
#231=ORIENTED_EDGE('',*,*,#357,.F.);
#232=ORIENTED_EDGE('',*,*,#353,.T.);
#233=ORIENTED_EDGE('',*,*,#356,.T.);
#234=ORIENTED_EDGE('',*,*,#358,.T.);
#235=ORIENTED_EDGE('',*,*,#359,.T.);
#236=ORIENTED_EDGE('',*,*,#342,.F.);
#237=ORIENTED_EDGE('',*,*,#339,.F.);
#238=ORIENTED_EDGE('',*,*,#333,.T.);
#239=ORIENTED_EDGE('',*,*,#341,.T.);
#240=ORIENTED_EDGE('',*,*,#370,.F.);
#241=ORIENTED_EDGE('',*,*,#363,.F.);
#242=ORIENTED_EDGE('',*,*,#366,.T.);
#243=ORIENTED_EDGE('',*,*,#360,.F.);
#244=ORIENTED_EDGE('',*,*,#370,.T.);
#245=ORIENTED_EDGE('',*,*,#349,.T.);
#246=ORIENTED_EDGE('',*,*,#371,.F.);
#247=ORIENTED_EDGE('',*,*,#364,.F.);
#248=ORIENTED_EDGE('',*,*,#350,.F.);
#249=ORIENTED_EDGE('',*,*,#347,.F.);
#250=ORIENTED_EDGE('',*,*,#342,.T.);
#251=ORIENTED_EDGE('',*,*,#361,.F.);
#252=ORIENTED_EDGE('',*,*,#365,.F.);
#253=ORIENTED_EDGE('',*,*,#371,.T.);
#254=ORIENTED_EDGE('',*,*,#357,.T.);
#255=ORIENTED_EDGE('',*,*,#358,.F.);
#256=ORIENTED_EDGE('',*,*,#355,.F.);
#257=ORIENTED_EDGE('',*,*,#350,.T.);
#258=ORIENTED_EDGE('',*,*,#362,.F.);
#259=ORIENTED_EDGE('',*,*,#367,.F.);
#260=ORIENTED_EDGE('',*,*,#372,.T.);
#261=ORIENTED_EDGE('',*,*,#373,.T.);
#262=ORIENTED_EDGE('',*,*,#374,.F.);
#263=ORIENTED_EDGE('',*,*,#318,.F.);
#264=ORIENTED_EDGE('',*,*,#375,.T.);
#265=ORIENTED_EDGE('',*,*,#376,.T.);
#266=ORIENTED_EDGE('',*,*,#377,.F.);
#267=ORIENTED_EDGE('',*,*,#373,.F.);
#268=ORIENTED_EDGE('',*,*,#378,.T.);
#269=ORIENTED_EDGE('',*,*,#320,.T.);
#270=ORIENTED_EDGE('',*,*,#379,.F.);
#271=ORIENTED_EDGE('',*,*,#376,.F.);
#272=ORIENTED_EDGE('',*,*,#378,.F.);
#273=ORIENTED_EDGE('',*,*,#375,.F.);
#274=ORIENTED_EDGE('',*,*,#372,.F.);
#275=ORIENTED_EDGE('',*,*,#319,.F.);
#276=ORIENTED_EDGE('',*,*,#321,.T.);
#277=ORIENTED_EDGE('',*,*,#374,.T.);
#278=ORIENTED_EDGE('',*,*,#377,.T.);
#279=ORIENTED_EDGE('',*,*,#379,.T.);
#280=ORIENTED_EDGE('',*,*,#386,.T.);
#281=ORIENTED_EDGE('',*,*,#383,.F.);
#282=ORIENTED_EDGE('',*,*,#337,.F.);
#283=ORIENTED_EDGE('',*,*,#338,.F.);
#284=ORIENTED_EDGE('',*,*,#326,.T.);
#285=ORIENTED_EDGE('',*,*,#336,.T.);
#286=ORIENTED_EDGE('',*,*,#390,.F.);
#287=ORIENTED_EDGE('',*,*,#380,.F.);
#288=ORIENTED_EDGE('',*,*,#345,.F.);
#289=ORIENTED_EDGE('',*,*,#346,.F.);
#290=ORIENTED_EDGE('',*,*,#337,.T.);
#291=ORIENTED_EDGE('',*,*,#384,.F.);
#292=ORIENTED_EDGE('',*,*,#390,.T.);
#293=ORIENTED_EDGE('',*,*,#344,.T.);
#294=ORIENTED_EDGE('',*,*,#391,.F.);
#295=ORIENTED_EDGE('',*,*,#381,.F.);
#296=ORIENTED_EDGE('',*,*,#382,.F.);
#297=ORIENTED_EDGE('',*,*,#391,.T.);
#298=ORIENTED_EDGE('',*,*,#352,.T.);
#299=ORIENTED_EDGE('',*,*,#353,.F.);
#300=ORIENTED_EDGE('',*,*,#354,.F.);
#301=ORIENTED_EDGE('',*,*,#345,.T.);
#302=ORIENTED_EDGE('',*,*,#385,.F.);
#303=ORIENTED_EDGE('',*,*,#387,.F.);
#304=EDGE_CURVE('',#481,#480,#392,.T.);
#305=EDGE_CURVE('',#481,#482,#393,.T.);
#306=EDGE_CURVE('',#482,#483,#394,.T.);
#307=EDGE_CURVE('',#480,#483,#395,.T.);
#308=EDGE_CURVE('',#481,#524,#396,.T.);
#309=EDGE_CURVE('',#482,#527,#397,.T.);
#310=EDGE_CURVE('',#484,#485,#398,.T.);
#311=EDGE_CURVE('',#485,#486,#399,.T.);
#312=EDGE_CURVE('',#487,#486,#400,.T.);
#313=EDGE_CURVE('',#484,#487,#401,.T.);
#314=EDGE_CURVE('',#485,#481,#402,.T.);
#315=EDGE_CURVE('',#486,#482,#403,.T.);
#316=EDGE_CURVE('',#480,#484,#404,.T.);
#317=EDGE_CURVE('',#483,#487,#405,.T.);
#318=EDGE_CURVE('',#488,#489,#406,.T.);
#319=EDGE_CURVE('',#490,#488,#407,.T.);
#320=EDGE_CURVE('',#490,#491,#408,.T.);
#321=EDGE_CURVE('',#491,#489,#409,.T.);
#322=EDGE_CURVE('',#490,#516,#410,.T.);
#323=EDGE_CURVE('',#491,#519,#411,.T.);
#324=EDGE_CURVE('',#492,#493,#412,.T.);
#325=EDGE_CURVE('',#493,#494,#413,.T.);
#326=EDGE_CURVE('',#495,#494,#414,.T.);
#327=EDGE_CURVE('',#492,#495,#415,.T.);
#328=EDGE_CURVE('',#493,#496,#416,.T.);
#329=EDGE_CURVE('',#496,#497,#417,.T.);
#330=EDGE_CURVE('',#494,#497,#418,.T.);
#331=EDGE_CURVE('',#496,#498,#419,.T.);
#332=EDGE_CURVE('',#498,#499,#420,.T.);
#333=EDGE_CURVE('',#497,#499,#421,.T.);
#334=EDGE_CURVE('',#498,#492,#422,.T.);
#335=EDGE_CURVE('',#499,#495,#423,.T.);
#336=EDGE_CURVE('',#494,#500,#424,.T.);
#337=EDGE_CURVE('',#501,#528,#425,.T.);
#338=EDGE_CURVE('',#495,#501,#426,.T.);
#339=EDGE_CURVE('',#497,#502,#427,.T.);
#340=EDGE_CURVE('',#500,#502,#428,.T.);
#341=EDGE_CURVE('',#499,#503,#429,.T.);
#342=EDGE_CURVE('',#502,#512,#430,.T.);
#343=EDGE_CURVE('',#503,#501,#431,.T.);
#344=EDGE_CURVE('',#500,#504,#432,.T.);
#345=EDGE_CURVE('',#505,#530,#433,.T.);
#346=EDGE_CURVE('',#501,#505,#434,.T.);
#347=EDGE_CURVE('',#502,#506,#435,.T.);
#348=EDGE_CURVE('',#504,#506,#436,.T.);
#349=EDGE_CURVE('',#503,#507,#437,.T.);
#350=EDGE_CURVE('',#506,#514,#438,.T.);
#351=EDGE_CURVE('',#507,#505,#439,.T.);
#352=EDGE_CURVE('',#504,#508,#440,.T.);
#353=EDGE_CURVE('',#509,#508,#441,.T.);
#354=EDGE_CURVE('',#505,#509,#442,.T.);
#355=EDGE_CURVE('',#506,#510,#443,.T.);
#356=EDGE_CURVE('',#508,#510,#444,.T.);
#357=EDGE_CURVE('',#507,#511,#445,.T.);
#358=EDGE_CURVE('',#510,#511,#446,.T.);
#359=EDGE_CURVE('',#511,#509,#447,.T.);
#360=EDGE_CURVE('',#512,#513,#448,.T.);
#361=EDGE_CURVE('',#514,#512,#449,.T.);
#362=EDGE_CURVE('',#515,#514,#450,.T.);
#363=EDGE_CURVE('',#516,#517,#451,.T.);
#364=EDGE_CURVE('',#517,#518,#452,.T.);
#365=EDGE_CURVE('',#518,#519,#453,.T.);
#366=EDGE_CURVE('',#516,#513,#454,.T.);
#367=EDGE_CURVE('',#519,#515,#455,.T.);
#368=EDGE_CURVE('',#513,#488,#456,.T.);
#369=EDGE_CURVE('',#515,#489,#457,.T.);
#370=EDGE_CURVE('',#517,#503,#458,.T.);
#371=EDGE_CURVE('',#518,#507,#459,.T.);
#372=EDGE_CURVE('',#488,#520,#460,.T.);
#373=EDGE_CURVE('',#520,#521,#461,.T.);
#374=EDGE_CURVE('',#489,#521,#462,.T.);
#375=EDGE_CURVE('',#520,#522,#463,.T.);
#376=EDGE_CURVE('',#522,#523,#464,.T.);
#377=EDGE_CURVE('',#521,#523,#465,.T.);
#378=EDGE_CURVE('',#522,#490,#466,.T.);
#379=EDGE_CURVE('',#523,#491,#467,.T.);
#380=EDGE_CURVE('',#524,#525,#468,.T.);
#381=EDGE_CURVE('',#525,#526,#469,.T.);
#382=EDGE_CURVE('',#526,#527,#470,.T.);
#383=EDGE_CURVE('',#528,#529,#471,.T.);
#384=EDGE_CURVE('',#530,#528,#472,.T.);
#385=EDGE_CURVE('',#531,#530,#473,.T.);
#386=EDGE_CURVE('',#524,#529,#474,.T.);
#387=EDGE_CURVE('',#527,#531,#475,.T.);
#388=EDGE_CURVE('',#529,#480,#476,.T.);
#389=EDGE_CURVE('',#531,#483,#477,.T.);
#390=EDGE_CURVE('',#525,#500,#478,.T.);
#391=EDGE_CURVE('',#526,#504,#479,.T.);
#392=B_SPLINE_CURVE_WITH_KNOTS('',1,(#822,#823),.UNSPECIFIED.,.F.,.F.,(2,
2),(-93300.1253290387,0.),.UNSPECIFIED.);
#393=B_SPLINE_CURVE_WITH_KNOTS('',1,(#824,#825),.UNSPECIFIED.,.F.,.F.,(2,
2),(0.,1982.04299652726),.UNSPECIFIED.);
#394=B_SPLINE_CURVE_WITH_KNOTS('',1,(#826,#827),.UNSPECIFIED.,.F.,.F.,(2,
2),(-93300.1253290387,0.),.UNSPECIFIED.);
#395=B_SPLINE_CURVE_WITH_KNOTS('',1,(#828,#829),.UNSPECIFIED.,.F.,.F.,(2,
2),(0.,1982.04299652726),.UNSPECIFIED.);
#396=B_SPLINE_CURVE_WITH_KNOTS('',1,(#830,#831),.UNSPECIFIED.,.F.,.F.,(2,
2),(93300.1253290387,93574.0502180568),.UNSPECIFIED.);
#397=B_SPLINE_CURVE_WITH_KNOTS('',1,(#832,#833),.UNSPECIFIED.,.F.,.F.,(2,
2),(93300.1253290387,93574.0502180568),.UNSPECIFIED.);
#398=B_SPLINE_CURVE_WITH_KNOTS('',1,(#834,#835),.UNSPECIFIED.,.F.,.F.,(2,
2),(0.,93300.1253290387),.UNSPECIFIED.);
#399=B_SPLINE_CURVE_WITH_KNOTS('',1,(#836,#837),.UNSPECIFIED.,.F.,.F.,(2,
2),(0.,1982.04299652726),.UNSPECIFIED.);
#400=B_SPLINE_CURVE_WITH_KNOTS('',1,(#838,#839),.UNSPECIFIED.,.F.,.F.,(2,
2),(0.,93300.1253290387),.UNSPECIFIED.);
#401=B_SPLINE_CURVE_WITH_KNOTS('',1,(#840,#841),.UNSPECIFIED.,.F.,.F.,(2,
2),(0.,1982.04299652726),.UNSPECIFIED.);
#402=B_SPLINE_CURVE_WITH_KNOTS('',1,(#842,#843),.UNSPECIFIED.,.F.,.F.,(2,
2),(93300.1253290387,94255.5339770023),.UNSPECIFIED.);
#403=B_SPLINE_CURVE_WITH_KNOTS('',1,(#844,#845),.UNSPECIFIED.,.F.,.F.,(2,
2),(93300.1253290387,94255.5339770023),.UNSPECIFIED.);
#404=B_SPLINE_CURVE_WITH_KNOTS('',1,(#846,#847),.UNSPECIFIED.,.F.,.F.,(2,
2),(187555.659306041,188511.067954005),.UNSPECIFIED.);
#405=B_SPLINE_CURVE_WITH_KNOTS('',1,(#848,#849),.UNSPECIFIED.,.F.,.F.,(2,
2),(187555.659306041,188511.067954005),.UNSPECIFIED.);
#406=B_SPLINE_CURVE_WITH_KNOTS('',1,(#850,#851),.UNSPECIFIED.,.F.,.F.,(2,
2),(0.,1982.04299652726),.UNSPECIFIED.);
#407=B_SPLINE_CURVE_WITH_KNOTS('',1,(#852,#853),.UNSPECIFIED.,.F.,.F.,(2,
2),(-187555.659306041,-94255.5339770023),.UNSPECIFIED.);
#408=B_SPLINE_CURVE_WITH_KNOTS('',1,(#854,#855),.UNSPECIFIED.,.F.,.F.,(2,
2),(0.,1982.04299652726),.UNSPECIFIED.);
#409=B_SPLINE_CURVE_WITH_KNOTS('',1,(#856,#857),.UNSPECIFIED.,.F.,.F.,(2,
2),(-187555.659306041,-94255.5339770023),.UNSPECIFIED.);
#410=B_SPLINE_CURVE_WITH_KNOTS('',1,(#858,#859),.UNSPECIFIED.,.F.,.F.,(2,
2),(187555.659306041,187603.484202004),.UNSPECIFIED.);
#411=B_SPLINE_CURVE_WITH_KNOTS('',1,(#860,#861),.UNSPECIFIED.,.F.,.F.,(2,
2),(187555.659306041,187603.484202004),.UNSPECIFIED.);
#412=B_SPLINE_CURVE_WITH_KNOTS('',1,(#862,#863),.UNSPECIFIED.,.F.,.F.,(2,
2),(0.,95584.2045730054),.UNSPECIFIED.);
#413=B_SPLINE_CURVE_WITH_KNOTS('',1,(#864,#865),.UNSPECIFIED.,.F.,.F.,(2,
2),(0.,960.760750182706),.UNSPECIFIED.);
#414=B_SPLINE_CURVE_WITH_KNOTS('',1,(#866,#867),.UNSPECIFIED.,.F.,.F.,(2,
2),(0.,95584.2045730054),.UNSPECIFIED.);
#415=B_SPLINE_CURVE_WITH_KNOTS('',1,(#868,#869),.UNSPECIFIED.,.F.,.F.,(2,
2),(0.,960.760750182706),.UNSPECIFIED.);
#416=B_SPLINE_CURVE_WITH_KNOTS('',1,(#870,#871),.UNSPECIFIED.,.F.,.F.,(2,
2),(95584.2045730054,103970.971549165),.UNSPECIFIED.);
#417=B_SPLINE_CURVE_WITH_KNOTS('',1,(#872,#873),.UNSPECIFIED.,.F.,.F.,(2,
2),(0.,960.760750182706),.UNSPECIFIED.);
#418=B_SPLINE_CURVE_WITH_KNOTS('',1,(#874,#875),.UNSPECIFIED.,.F.,.F.,(2,
2),(95584.2045730054,103970.971549165),.UNSPECIFIED.);
#419=B_SPLINE_CURVE_WITH_KNOTS('',1,(#876,#877),.UNSPECIFIED.,.F.,.F.,(2,
2),(103970.971549165,199555.176122171),.UNSPECIFIED.);
#420=B_SPLINE_CURVE_WITH_KNOTS('',1,(#878,#879),.UNSPECIFIED.,.F.,.F.,(2,
2),(0.,960.760750182706),.UNSPECIFIED.);
#421=B_SPLINE_CURVE_WITH_KNOTS('',1,(#880,#881),.UNSPECIFIED.,.F.,.F.,(2,
2),(103970.971549165,199555.176122171),.UNSPECIFIED.);
#422=B_SPLINE_CURVE_WITH_KNOTS('',1,(#882,#883),.UNSPECIFIED.,.F.,.F.,(2,
2),(199555.176122171,207941.94309833),.UNSPECIFIED.);
#423=B_SPLINE_CURVE_WITH_KNOTS('',1,(#884,#885),.UNSPECIFIED.,.F.,.F.,(2,
2),(199555.176122171,207941.94309833),.UNSPECIFIED.);
#424=B_SPLINE_CURVE_WITH_KNOTS('',1,(#886,#887),.UNSPECIFIED.,.F.,.F.,(2,
2),(0.,960.760750182706),.UNSPECIFIED.);
#425=B_SPLINE_CURVE_WITH_KNOTS('',1,(#888,#889),.UNSPECIFIED.,.F.,.F.,(2,
2),(0.,1277.15178015649),.UNSPECIFIED.);
#426=B_SPLINE_CURVE_WITH_KNOTS('',1,(#890,#891),.UNSPECIFIED.,.F.,.F.,(2,
2),(0.,960.760750182706),.UNSPECIFIED.);
#427=B_SPLINE_CURVE_WITH_KNOTS('',1,(#892,#893),.UNSPECIFIED.,.F.,.F.,(2,
2),(0.,960.760750182706),.UNSPECIFIED.);
#428=B_SPLINE_CURVE_WITH_KNOTS('',1,(#894,#895),.UNSPECIFIED.,.F.,.F.,(2,
2),(95584.2045730054,103970.971549165),.UNSPECIFIED.);
#429=B_SPLINE_CURVE_WITH_KNOTS('',1,(#896,#897),.UNSPECIFIED.,.F.,.F.,(2,
2),(0.,960.760750182706),.UNSPECIFIED.);
#430=B_SPLINE_CURVE_WITH_KNOTS('',1,(#898,#899),.UNSPECIFIED.,.F.,.F.,(2,
2),(103970.971549165,105491.125418618),.UNSPECIFIED.);
#431=B_SPLINE_CURVE_WITH_KNOTS('',1,(#900,#901),.UNSPECIFIED.,.F.,.F.,(2,
2),(199555.176122171,207941.94309833),.UNSPECIFIED.);
#432=B_SPLINE_CURVE_WITH_KNOTS('',1,(#902,#903),.UNSPECIFIED.,.F.,.F.,(2,
2),(0.,960.760750182706),.UNSPECIFIED.);
#433=B_SPLINE_CURVE_WITH_KNOTS('',1,(#904,#905),.UNSPECIFIED.,.F.,.F.,(2,
2),(0.,1277.15178015649),.UNSPECIFIED.);
#434=B_SPLINE_CURVE_WITH_KNOTS('',1,(#906,#907),.UNSPECIFIED.,.F.,.F.,(2,
2),(0.,960.760750182706),.UNSPECIFIED.);
#435=B_SPLINE_CURVE_WITH_KNOTS('',1,(#908,#909),.UNSPECIFIED.,.F.,.F.,(2,
2),(0.,960.760750182706),.UNSPECIFIED.);
#436=B_SPLINE_CURVE_WITH_KNOTS('',1,(#910,#911),.UNSPECIFIED.,.F.,.F.,(2,
2),(95584.2045730054,103970.971549165),.UNSPECIFIED.);
#437=B_SPLINE_CURVE_WITH_KNOTS('',1,(#912,#913),.UNSPECIFIED.,.F.,.F.,(2,
2),(0.,960.760750182706),.UNSPECIFIED.);
#438=B_SPLINE_CURVE_WITH_KNOTS('',1,(#914,#915),.UNSPECIFIED.,.F.,.F.,(2,
2),(103970.971549165,105491.125418618),.UNSPECIFIED.);
#439=B_SPLINE_CURVE_WITH_KNOTS('',1,(#916,#917),.UNSPECIFIED.,.F.,.F.,(2,
2),(199555.176122171,207941.94309833),.UNSPECIFIED.);
#440=B_SPLINE_CURVE_WITH_KNOTS('',1,(#918,#919),.UNSPECIFIED.,.F.,.F.,(2,
2),(0.,960.760750182706),.UNSPECIFIED.);
#441=B_SPLINE_CURVE_WITH_KNOTS('',1,(#920,#921),.UNSPECIFIED.,.F.,.F.,(2,
2),(0.,95584.2045730054),.UNSPECIFIED.);
#442=B_SPLINE_CURVE_WITH_KNOTS('',1,(#922,#923),.UNSPECIFIED.,.F.,.F.,(2,
2),(0.,960.760750182706),.UNSPECIFIED.);
#443=B_SPLINE_CURVE_WITH_KNOTS('',1,(#924,#925),.UNSPECIFIED.,.F.,.F.,(2,
2),(0.,960.760750182706),.UNSPECIFIED.);
#444=B_SPLINE_CURVE_WITH_KNOTS('',1,(#926,#927),.UNSPECIFIED.,.F.,.F.,(2,
2),(95584.2045730054,103970.971549165),.UNSPECIFIED.);
#445=B_SPLINE_CURVE_WITH_KNOTS('',1,(#928,#929),.UNSPECIFIED.,.F.,.F.,(2,
2),(0.,960.760750182706),.UNSPECIFIED.);
#446=B_SPLINE_CURVE_WITH_KNOTS('',1,(#930,#931),.UNSPECIFIED.,.F.,.F.,(2,
2),(103970.971549165,199555.176122171),.UNSPECIFIED.);
#447=B_SPLINE_CURVE_WITH_KNOTS('',1,(#932,#933),.UNSPECIFIED.,.F.,.F.,(2,
2),(199555.176122171,207941.94309833),.UNSPECIFIED.);
#448=B_SPLINE_CURVE_WITH_KNOTS('',1,(#934,#935),.UNSPECIFIED.,.F.,.F.,(2,
2),(-574.750467112635,0.),.UNSPECIFIED.);
#449=B_SPLINE_CURVE_WITH_KNOTS('',1,(#936,#937),.UNSPECIFIED.,.F.,.F.,(2,
2),(-1535.51121729534,-574.750467112635),.UNSPECIFIED.);
#450=B_SPLINE_CURVE_WITH_KNOTS('',1,(#938,#939),.UNSPECIFIED.,.F.,.F.,(2,
2),(-1982.04299652726,-1535.51121729534),.UNSPECIFIED.);
#451=B_SPLINE_CURVE_WITH_KNOTS('',1,(#940,#941),.UNSPECIFIED.,.F.,.F.,(2,
2),(0.,574.750467112635),.UNSPECIFIED.);
#452=B_SPLINE_CURVE_WITH_KNOTS('',1,(#942,#943),.UNSPECIFIED.,.F.,.F.,(2,
2),(574.750467112635,1535.51121729534),.UNSPECIFIED.);
#453=B_SPLINE_CURVE_WITH_KNOTS('',1,(#944,#945),.UNSPECIFIED.,.F.,.F.,(2,
2),(1535.51121729534,1982.04299652726),.UNSPECIFIED.);
#454=B_SPLINE_CURVE_WITH_KNOTS('',1,(#946,#947),.UNSPECIFIED.,.F.,.F.,(2,
2),(-198791.250747656,-105491.125418618),.UNSPECIFIED.);
#455=B_SPLINE_CURVE_WITH_KNOTS('',1,(#948,#949),.UNSPECIFIED.,.F.,.F.,(2,
2),(-198791.250747656,-105491.125418618),.UNSPECIFIED.);
#456=B_SPLINE_CURVE_WITH_KNOTS('',1,(#950,#951),.UNSPECIFIED.,.F.,.F.,(2,
2),(94207.7090810394,94255.5339770023),.UNSPECIFIED.);
#457=B_SPLINE_CURVE_WITH_KNOTS('',1,(#952,#953),.UNSPECIFIED.,.F.,.F.,(2,
2),(94207.7090810394,94255.5339770023),.UNSPECIFIED.);
#458=B_SPLINE_CURVE_WITH_KNOTS('',1,(#954,#955),.UNSPECIFIED.,.F.,.F.,(2,
2),(198791.250747656,199555.176122171),.UNSPECIFIED.);
#459=B_SPLINE_CURVE_WITH_KNOTS('',1,(#956,#957),.UNSPECIFIED.,.F.,.F.,(2,
2),(198791.250747656,199555.176122171),.UNSPECIFIED.);
#460=B_SPLINE_CURVE_WITH_KNOTS('',1,(#958,#959),.UNSPECIFIED.,.F.,.F.,(2,
2),(93300.1253290387,94255.5339770023),.UNSPECIFIED.);
#461=B_SPLINE_CURVE_WITH_KNOTS('',1,(#960,#961),.UNSPECIFIED.,.F.,.F.,(2,
2),(0.,1982.04299652726),.UNSPECIFIED.);
#462=B_SPLINE_CURVE_WITH_KNOTS('',1,(#962,#963),.UNSPECIFIED.,.F.,.F.,(2,
2),(93300.1253290387,94255.5339770023),.UNSPECIFIED.);
#463=B_SPLINE_CURVE_WITH_KNOTS('',1,(#964,#965),.UNSPECIFIED.,.F.,.F.,(2,
2),(94255.5339770023,187555.659306041),.UNSPECIFIED.);
#464=B_SPLINE_CURVE_WITH_KNOTS('',1,(#966,#967),.UNSPECIFIED.,.F.,.F.,(2,
2),(0.,1982.04299652726),.UNSPECIFIED.);
#465=B_SPLINE_CURVE_WITH_KNOTS('',1,(#968,#969),.UNSPECIFIED.,.F.,.F.,(2,
2),(94255.5339770023,187555.659306041),.UNSPECIFIED.);
#466=B_SPLINE_CURVE_WITH_KNOTS('',1,(#970,#971),.UNSPECIFIED.,.F.,.F.,(2,
2),(187555.659306041,188511.067954005),.UNSPECIFIED.);
#467=B_SPLINE_CURVE_WITH_KNOTS('',1,(#972,#973),.UNSPECIFIED.,.F.,.F.,(2,
2),(187555.659306041,188511.067954005),.UNSPECIFIED.);
#468=B_SPLINE_CURVE_WITH_KNOTS('',1,(#974,#975),.UNSPECIFIED.,.F.,.F.,(2,
2),(0.,574.750467112635),.UNSPECIFIED.);
#469=B_SPLINE_CURVE_WITH_KNOTS('',1,(#976,#977),.UNSPECIFIED.,.F.,.F.,(2,
2),(574.750467112635,1535.51121729534),.UNSPECIFIED.);
#470=B_SPLINE_CURVE_WITH_KNOTS('',1,(#978,#979),.UNSPECIFIED.,.F.,.F.,(2,
2),(1535.51121729534,1982.04299652726),.UNSPECIFIED.);
#471=B_SPLINE_CURVE_WITH_KNOTS('',1,(#980,#981),.UNSPECIFIED.,.F.,.F.,(2,
2),(-960.760750182706,-386.010283070071),.UNSPECIFIED.);
#472=B_SPLINE_CURVE_WITH_KNOTS('',1,(#982,#983),.UNSPECIFIED.,.F.,.F.,(2,
2),(-960.760750182706,0.),.UNSPECIFIED.);
#473=B_SPLINE_CURVE_WITH_KNOTS('',1,(#984,#985),.UNSPECIFIED.,.F.,.F.,(2,
2),(-446.531779231915,0.),.UNSPECIFIED.);
#474=B_SPLINE_CURVE_WITH_KNOTS('',1,(#986,#987),.UNSPECIFIED.,.F.,.F.,(2,
2),(-93300.1253290387,0.),.UNSPECIFIED.);
#475=B_SPLINE_CURVE_WITH_KNOTS('',1,(#988,#989),.UNSPECIFIED.,.F.,.F.,(2,
2),(-93300.1253290387,0.),.UNSPECIFIED.);
#476=B_SPLINE_CURVE_WITH_KNOTS('',1,(#990,#991),.UNSPECIFIED.,.F.,.F.,(2,
2),(188237.143064987,188511.067954005),.UNSPECIFIED.);
#477=B_SPLINE_CURVE_WITH_KNOTS('',1,(#992,#993),.UNSPECIFIED.,.F.,.F.,(2,
2),(188237.143064987,188511.067954005),.UNSPECIFIED.);
#478=B_SPLINE_CURVE_WITH_KNOTS('',1,(#994,#995),.UNSPECIFIED.,.F.,.F.,(2,
2),(94577.2771091951,95584.2045730054),.UNSPECIFIED.);
#479=B_SPLINE_CURVE_WITH_KNOTS('',1,(#996,#997),.UNSPECIFIED.,.F.,.F.,(2,
2),(94577.2771091952,95584.2045730054),.UNSPECIFIED.);
#480=VERTEX_POINT('',#770);
#481=VERTEX_POINT('',#771);
#482=VERTEX_POINT('',#772);
#483=VERTEX_POINT('',#773);
#484=VERTEX_POINT('',#774);
#485=VERTEX_POINT('',#775);
#486=VERTEX_POINT('',#776);
#487=VERTEX_POINT('',#777);
#488=VERTEX_POINT('',#778);
#489=VERTEX_POINT('',#779);
#490=VERTEX_POINT('',#780);
#491=VERTEX_POINT('',#781);
#492=VERTEX_POINT('',#782);
#493=VERTEX_POINT('',#783);
#494=VERTEX_POINT('',#784);
#495=VERTEX_POINT('',#785);
#496=VERTEX_POINT('',#786);
#497=VERTEX_POINT('',#787);
#498=VERTEX_POINT('',#788);
#499=VERTEX_POINT('',#789);
#500=VERTEX_POINT('',#790);
#501=VERTEX_POINT('',#791);
#502=VERTEX_POINT('',#792);
#503=VERTEX_POINT('',#793);
#504=VERTEX_POINT('',#794);
#505=VERTEX_POINT('',#795);
#506=VERTEX_POINT('',#796);
#507=VERTEX_POINT('',#797);
#508=VERTEX_POINT('',#798);
#509=VERTEX_POINT('',#799);
#510=VERTEX_POINT('',#800);
#511=VERTEX_POINT('',#801);
#512=VERTEX_POINT('',#802);
#513=VERTEX_POINT('',#803);
#514=VERTEX_POINT('',#804);
#515=VERTEX_POINT('',#805);
#516=VERTEX_POINT('',#806);
#517=VERTEX_POINT('',#807);
#518=VERTEX_POINT('',#808);
#519=VERTEX_POINT('',#809);
#520=VERTEX_POINT('',#810);
#521=VERTEX_POINT('',#811);
#522=VERTEX_POINT('',#812);
#523=VERTEX_POINT('',#813);
#524=VERTEX_POINT('',#814);
#525=VERTEX_POINT('',#815);
#526=VERTEX_POINT('',#816);
#527=VERTEX_POINT('',#817);
#528=VERTEX_POINT('',#818);
#529=VERTEX_POINT('',#819);
#530=VERTEX_POINT('',#820);
#531=VERTEX_POINT('',#821);
#532=PLANE('',#656);
#533=PLANE('',#657);
#534=PLANE('',#658);
#535=PLANE('',#659);
#536=PLANE('',#660);
#537=PLANE('',#661);
#538=PLANE('',#662);
#539=PLANE('',#663);
#540=PLANE('',#664);
#541=PLANE('',#665);
#542=PLANE('',#666);
#543=PLANE('',#667);
#544=PLANE('',#668);
#545=PLANE('',#669);
#546=PLANE('',#670);
#547=PLANE('',#671);
#548=PLANE('',#672);
#549=PLANE('',#673);
#550=PLANE('',#674);
#551=PLANE('',#675);
#552=PLANE('',#676);
#553=PLANE('',#677);
#554=PLANE('',#678);
#555=PLANE('',#679);
#556=PLANE('',#680);
#557=PLANE('',#681);
#558=PLANE('',#682);
#559=PLANE('',#683);
#560=PLANE('',#684);
#561=PLANE('',#685);
#562=PLANE('',#686);
#563=PLANE('',#687);
#564=PLANE('',#688);
#565=PLANE('',#689);
#566=PLANE('',#690);
#567=PLANE('',#691);
#568=SHAPE_DEFINITION_REPRESENTATION(#569,#654);
#569=PRODUCT_DEFINITION_SHAPE('Document','',#571);
#570=PRODUCT_DEFINITION_CONTEXT('3D Mechanical Parts',#643,'design');
#571=PRODUCT_DEFINITION('A','First version',#613,#570);
#572=DATE_TIME_ROLE('classification_date');
#573=DATE_TIME_ROLE('creation_date');
#574=APPLIED_DATE_AND_TIME_ASSIGNMENT(#598,#572,(#577));
#575=APPLIED_DATE_AND_TIME_ASSIGNMENT(#600,#573,(#571));
#576=SECURITY_CLASSIFICATION_LEVEL('unclassified');
#577=SECURITY_CLASSIFICATION('A','Security for version',#576);
#578=APPLIED_SECURITY_CLASSIFICATION_ASSIGNMENT(#577,(#613));
#579=APPROVAL_ROLE('Version approval');
#580=APPROVAL_ROLE('Version Security approval');
#581=APPROVAL_ROLE('Definition approval');
#582=APPROVAL_PERSON_ORGANIZATION(#631,#607,#579);
#583=APPROVAL_PERSON_ORGANIZATION(#632,#608,#580);
#584=APPROVAL_PERSON_ORGANIZATION(#635,#609,#581);
#585=COORDINATED_UNIVERSAL_TIME_OFFSET(5,0,.BEHIND.);
#586=LOCAL_TIME(0,0,0.,#585);
#587=LOCAL_TIME(0,0,0.,#585);
#588=LOCAL_TIME(0,0,0.,#585);
#589=LOCAL_TIME(0,0,0.,#585);
#590=LOCAL_TIME(0,0,0.,#585);
#591=CALENDAR_DATE(1999,1,1);
#592=CALENDAR_DATE(1999,1,1);
#593=CALENDAR_DATE(1999,1,1);
#594=CALENDAR_DATE(1999,1,1);
#595=CALENDAR_DATE(1999,1,1);
#596=DATE_AND_TIME(#591,#586);
#597=DATE_AND_TIME(#592,#587);
#598=DATE_AND_TIME(#593,#588);
#599=DATE_AND_TIME(#594,#589);
#600=DATE_AND_TIME(#595,#590);
#601=APPROVAL_DATE_TIME(#596,#607);
#602=APPROVAL_DATE_TIME(#597,#608);
#603=APPROVAL_DATE_TIME(#599,#609);
#604=APPROVAL_STATUS('not_yet_approved');
#605=APPROVAL_STATUS('not_yet_approved');
#606=APPROVAL_STATUS('approved');
#607=APPROVAL(#604,'Version approval');
#608=APPROVAL(#605,'Version Security approval');
#609=APPROVAL(#606,'Definition approval');
#610=APPLIED_APPROVAL_ASSIGNMENT(#607,(#613));
#611=APPLIED_APPROVAL_ASSIGNMENT(#608,(#577));
#612=APPLIED_APPROVAL_ASSIGNMENT(#609,(#571));
#613=PRODUCT_DEFINITION_FORMATION_WITH_SPECIFIED_SOURCE('A',
'First version',#645,.MADE.);
#614=PERSON_AND_ORGANIZATION_ROLE('design_owner');
#615=PERSON_AND_ORGANIZATION_ROLE('creator');
#616=PERSON_AND_ORGANIZATION_ROLE('design_supplier');
#617=PERSON_AND_ORGANIZATION_ROLE('classification_officer');
#618=PERSON_AND_ORGANIZATION_ROLE('creator');
#619=ORGANIZATION('STI','lab','lab');
#620=ORGANIZATION('STI','unknown','unknown');
#621=ORGANIZATION('STI','unknown','unknown');
#622=ORGANIZATION('STI','unknown','unknown');
#623=ORGANIZATION('STI','unknown','unknown');
#624=ORGANIZATION('STI','unknown','unknown');
#625=ORGANIZATION('STI','unknown','unknown');
#626=PERSON('1','Box','vc60',$,$,$);
#627=PERSON('2','last','first',$,$,$);
#628=PERSON('3','President','Mr.',$,$,$);
#629=PERSON_AND_ORGANIZATION(#626,#619);
#630=PERSON_AND_ORGANIZATION(#627,#620);
#631=PERSON_AND_ORGANIZATION(#628,#621);
#632=PERSON_AND_ORGANIZATION(#628,#622);
#633=PERSON_AND_ORGANIZATION(#628,#623);
#634=PERSON_AND_ORGANIZATION(#627,#624);
#635=PERSON_AND_ORGANIZATION(#628,#625);
#636=APPLIED_PERSON_AND_ORGANIZATION_ASSIGNMENT(#629,#614,(#645));
#637=APPLIED_PERSON_AND_ORGANIZATION_ASSIGNMENT(#630,#615,(#613));
#638=APPLIED_PERSON_AND_ORGANIZATION_ASSIGNMENT(#630,#616,(#613));
#639=APPLIED_PERSON_AND_ORGANIZATION_ASSIGNMENT(#633,#617,(#577));
#640=APPLIED_PERSON_AND_ORGANIZATION_ASSIGNMENT(#634,#618,(#571));
#641=PRODUCT_RELATED_PRODUCT_CATEGORY('detail','detail',(#645));
#642=APPLICATION_PROTOCOL_DEFINITION('International Standard',
'config_control_design',1994,#643);
#643=APPLICATION_CONTEXT(
'configuration controlled 3d designs of mechanical parts and assemblie
s');
#644=PRODUCT_CONTEXT('3D Mechanical Parts',#643,'mechanical');
#645=PRODUCT('Document','Document','',(#644));
#646=(
LENGTH_UNIT()
NAMED_UNIT(*)
SI_UNIT(.MILLI.,.METRE.)
);
#647=(
NAMED_UNIT(*)
PLANE_ANGLE_UNIT()
SI_UNIT($,.RADIAN.)
);
#648=DIMENSIONAL_EXPONENTS(0.,0.,0.,0.,0.,0.,0.);
#649=PLANE_ANGLE_MEASURE_WITH_UNIT(PLANE_ANGLE_MEASURE(0.01745329252),#647);
#650=(
CONVERSION_BASED_UNIT('DEGREES',#649)
NAMED_UNIT(#648)
PLANE_ANGLE_UNIT()
);
#651=(
NAMED_UNIT(*)
SI_UNIT($,.STERADIAN.)
SOLID_ANGLE_UNIT()
);
#652=UNCERTAINTY_MEASURE_WITH_UNIT(LENGTH_MEASURE(0.001),#646,
'DISTANCE_ACCURACY_VALUE',
'Maximum model space distance between geometric entities at asserted c
onnectivities');
#653=(
GEOMETRIC_REPRESENTATION_CONTEXT(3)
GLOBAL_UNCERTAINTY_ASSIGNED_CONTEXT((#652))
GLOBAL_UNIT_ASSIGNED_CONTEXT((#651,#650,#646))
REPRESENTATION_CONTEXT('ID1','3D')
);
#654=SHAPE_REPRESENTATION('Document',(#655,#692),#653);
#655=AXIS2_PLACEMENT_3D('',#733,#693,#694);
#656=AXIS2_PLACEMENT_3D('',#734,#695,$);
#657=AXIS2_PLACEMENT_3D('',#735,#696,$);
#658=AXIS2_PLACEMENT_3D('',#736,#697,$);
#659=AXIS2_PLACEMENT_3D('',#737,#698,$);
#660=AXIS2_PLACEMENT_3D('',#738,#699,$);
#661=AXIS2_PLACEMENT_3D('',#739,#700,$);
#662=AXIS2_PLACEMENT_3D('',#740,#701,$);
#663=AXIS2_PLACEMENT_3D('',#741,#702,$);
#664=AXIS2_PLACEMENT_3D('',#742,#703,$);
#665=AXIS2_PLACEMENT_3D('',#743,#704,$);
#666=AXIS2_PLACEMENT_3D('',#744,#705,$);
#667=AXIS2_PLACEMENT_3D('',#745,#706,$);
#668=AXIS2_PLACEMENT_3D('',#746,#707,$);
#669=AXIS2_PLACEMENT_3D('',#747,#708,$);
#670=AXIS2_PLACEMENT_3D('',#748,#709,$);
#671=AXIS2_PLACEMENT_3D('',#749,#710,$);
#672=AXIS2_PLACEMENT_3D('',#750,#711,$);
#673=AXIS2_PLACEMENT_3D('',#751,#712,$);
#674=AXIS2_PLACEMENT_3D('',#752,#713,$);
#675=AXIS2_PLACEMENT_3D('',#753,#714,$);
#676=AXIS2_PLACEMENT_3D('',#754,#715,$);
#677=AXIS2_PLACEMENT_3D('',#755,#716,$);
#678=AXIS2_PLACEMENT_3D('',#756,#717,$);
#679=AXIS2_PLACEMENT_3D('',#757,#718,$);
#680=AXIS2_PLACEMENT_3D('',#758,#719,$);
#681=AXIS2_PLACEMENT_3D('',#759,#720,$);
#682=AXIS2_PLACEMENT_3D('',#760,#721,$);
#683=AXIS2_PLACEMENT_3D('',#761,#722,$);
#684=AXIS2_PLACEMENT_3D('',#762,#723,$);
#685=AXIS2_PLACEMENT_3D('',#763,#724,$);
#686=AXIS2_PLACEMENT_3D('',#764,#725,$);
#687=AXIS2_PLACEMENT_3D('',#765,#726,$);
#688=AXIS2_PLACEMENT_3D('',#766,#727,$);
#689=AXIS2_PLACEMENT_3D('',#767,#728,$);
#690=AXIS2_PLACEMENT_3D('',#768,#729,$);
#691=AXIS2_PLACEMENT_3D('',#769,#730,$);
#692=AXIS2_PLACEMENT_3D('',#998,#731,#732);
#693=DIRECTION('',(0.,0.,1.));
#694=DIRECTION('',(1.,0.,0.));
#695=DIRECTION('',(1.,0.,0.));
#696=DIRECTION('',(-1.,0.,0.));
#697=DIRECTION('',(0.,0.,1.));
#698=DIRECTION('',(1.,0.,0.));
#699=DIRECTION('',(-1.,0.,0.));
#700=DIRECTION('',(1.,0.,0.));
#701=DIRECTION('',(-1.,0.,0.));
#702=DIRECTION('',(0.,0.,1.));
#703=DIRECTION('',(1.,0.,0.));
#704=DIRECTION('',(0.,0.,-1.));
#705=DIRECTION('',(-1.,0.,0.));
#706=DIRECTION('',(0.,0.,1.));
#707=DIRECTION('',(1.,0.,0.));
#708=DIRECTION('',(0.,0.,-1.));
#709=DIRECTION('',(-1.,0.,0.));
#710=DIRECTION('',(0.,0.,1.));
#711=DIRECTION('',(1.,0.,0.));
#712=DIRECTION('',(0.,0.,-1.));
#713=DIRECTION('',(-1.,0.,0.));
#714=DIRECTION('',(0.,0.,1.));
#715=DIRECTION('',(1.,0.,0.));
#716=DIRECTION('',(0.,0.,-1.));
#717=DIRECTION('',(-1.,0.,0.));
#718=DIRECTION('',(1.,0.,0.));
#719=DIRECTION('',(0.,0.,-1.));
#720=DIRECTION('',(-1.,0.,0.));
#721=DIRECTION('',(0.,-1.,0.));
#722=DIRECTION('',(0.,1.,0.));
#723=DIRECTION('',(0.,-1.,0.));
#724=DIRECTION('',(0.,1.,0.));
#725=DIRECTION('',(0.,-1.,0.));
#726=DIRECTION('',(0.,1.,0.));
#727=DIRECTION('',(0.,-1.,0.));
#728=DIRECTION('',(0.,1.,0.));
#729=DIRECTION('',(0.,-1.,0.));
#730=DIRECTION('',(0.,1.,0.));
#731=DIRECTION('',(0.,0.,1.));
#732=DIRECTION('',(1.,0.,0.));
#733=CARTESIAN_POINT('',(0.,0.,0.));
#734=CARTESIAN_POINT('',(46930.1221631745,-1535.51121729534,4396.76306759518));
#735=CARTESIAN_POINT('',(-46370.0031658641,-1535.51121729534,3441.35441963148));
#736=CARTESIAN_POINT('',(-46370.0031658641,-1535.51121729534,5352.17171555887));
#737=CARTESIAN_POINT('',(46930.1221631745,-1535.51121729534,5352.17171555887));
#738=CARTESIAN_POINT('',(-46370.0031658641,-1535.51121729534,4396.76306759518));
#739=CARTESIAN_POINT('',(46416.8957575324,-1535.51121729534,-3356.34504558198));
#740=CARTESIAN_POINT('',(-46883.2295715063,-1535.51121729534,-4311.75369354568));
#741=CARTESIAN_POINT('',(-47647.1549460206,-2882.28225054812,4122.83817857703));
#742=CARTESIAN_POINT('',(47937.0496269847,-2882.28225054812,4122.83817857703));
#743=CARTESIAN_POINT('',(47937.0496269847,-2882.28225054812,-4263.92879758279));
#744=CARTESIAN_POINT('',(-47647.1549460206,-2882.28225054812,-4263.92879758279));
#745=CARTESIAN_POINT('',(-47647.1549460206,-1921.52150036541,4122.83817857703));
#746=CARTESIAN_POINT('',(47937.0496269847,-1921.52150036541,4122.83817857703));
#747=CARTESIAN_POINT('',(47937.0496269847,-1921.52150036541,-4263.92879758279));
#748=CARTESIAN_POINT('',(-47647.1549460206,-1921.52150036541,-4263.92879758279));
#749=CARTESIAN_POINT('',(-47647.1549460206,-960.760750182706,4122.83817857703));
#750=CARTESIAN_POINT('',(47937.0496269847,-960.760750182706,4122.83817857703));
#751=CARTESIAN_POINT('',(47937.0496269847,-960.760750182706,-4263.92879758279));
#752=CARTESIAN_POINT('',(-47647.1549460206,-960.760750182706,-4263.92879758279));
#753=CARTESIAN_POINT('',(-47647.1549460206,0.,4122.83817857703));
#754=CARTESIAN_POINT('',(47937.0496269847,0.,4122.83817857703));
#755=CARTESIAN_POINT('',(47937.0496269847,0.,-4263.92879758279));
#756=CARTESIAN_POINT('',(-47647.1549460206,0.,-4263.92879758279));
#757=CARTESIAN_POINT('',(46416.8957575324,-1535.51121729534,-4311.75369354568));
#758=CARTESIAN_POINT('',(46416.8957575324,-1535.51121729534,-5267.16234150938));
#759=CARTESIAN_POINT('',(-46883.2295715063,-1535.51121729534,-5267.16234150938));
#760=CARTESIAN_POINT('',(-46370.0031658641,-1535.51121729534,4396.76306759518));
#761=CARTESIAN_POINT('',(-46370.0031658641,446.531779231915,4396.76306759518));
#762=CARTESIAN_POINT('',(-46370.0031658641,-1535.51121729534,5352.17171555887));
#763=CARTESIAN_POINT('',(-46370.0031658641,446.531779231915,5352.17171555887));
#764=CARTESIAN_POINT('',(-46883.2295715063,-1535.51121729534,-3356.34504558198));
#765=CARTESIAN_POINT('',(-46883.2295715063,446.531779231915,-3356.34504558198));
#766=CARTESIAN_POINT('',(-47647.1549460206,-2882.28225054812,4122.83817857703));
#767=CARTESIAN_POINT('',(-47647.1549460206,960.760750182706,4122.83817857703));
#768=CARTESIAN_POINT('',(-46883.2295715063,-1535.51121729534,-4311.75369354568));
#769=CARTESIAN_POINT('',(-46883.2295715063,446.531779231915,-4311.75369354568));
#770=CARTESIAN_POINT('',(-46370.0031658641,-1535.51121729534,4396.76306759518));
#771=CARTESIAN_POINT('',(46930.1221631745,-1535.51121729534,4396.76306759518));
#772=CARTESIAN_POINT('',(46930.1221631745,446.531779231915,4396.76306759518));
#773=CARTESIAN_POINT('',(-46370.0031658641,446.531779231915,4396.76306759518));
#774=CARTESIAN_POINT('',(-46370.0031658641,-1535.51121729534,5352.17171555887));
#775=CARTESIAN_POINT('',(46930.1221631745,-1535.51121729534,5352.17171555887));
#776=CARTESIAN_POINT('',(46930.1221631745,446.531779231915,5352.17171555887));
#777=CARTESIAN_POINT('',(-46370.0031658641,446.531779231915,5352.17171555887));
#778=CARTESIAN_POINT('',(46416.8957575324,-1535.51121729534,-4311.75369354568));
#779=CARTESIAN_POINT('',(46416.8957575324,446.531779231915,-4311.75369354568));
#780=CARTESIAN_POINT('',(-46883.2295715063,-1535.51121729534,-4311.75369354568));
#781=CARTESIAN_POINT('',(-46883.2295715063,446.531779231915,-4311.75369354568));
#782=CARTESIAN_POINT('',(-47647.1549460206,-2882.28225054812,4122.83817857703));
#783=CARTESIAN_POINT('',(47937.0496269847,-2882.28225054812,4122.83817857703));
#784=CARTESIAN_POINT('',(47937.0496269847,-1921.52150036541,4122.83817857703));
#785=CARTESIAN_POINT('',(-47647.1549460206,-1921.52150036541,4122.83817857703));
#786=CARTESIAN_POINT('',(47937.0496269847,-2882.28225054812,-4263.92879758279));
#787=CARTESIAN_POINT('',(47937.0496269847,-1921.52150036541,-4263.92879758279));
#788=CARTESIAN_POINT('',(-47647.1549460206,-2882.28225054812,-4263.92879758279));
#789=CARTESIAN_POINT('',(-47647.1549460206,-1921.52150036541,-4263.92879758279));
#790=CARTESIAN_POINT('',(47937.0496269847,-960.760750182706,4122.83817857703));
#791=CARTESIAN_POINT('',(-47647.1549460206,-960.760750182706,4122.83817857703));
#792=CARTESIAN_POINT('',(47937.0496269847,-960.760750182706,-4263.92879758279));
#793=CARTESIAN_POINT('',(-47647.1549460206,-960.760750182706,-4263.92879758279));
#794=CARTESIAN_POINT('',(47937.0496269847,0.,4122.83817857703));
#795=CARTESIAN_POINT('',(-47647.1549460206,0.,4122.83817857703));
#796=CARTESIAN_POINT('',(47937.0496269847,0.,-4263.92879758279));
#797=CARTESIAN_POINT('',(-47647.1549460206,0.,-4263.92879758279));
#798=CARTESIAN_POINT('',(47937.0496269847,960.760750182706,4122.83817857703));
#799=CARTESIAN_POINT('',(-47647.1549460206,960.760750182706,4122.83817857703));
#800=CARTESIAN_POINT('',(47937.0496269847,960.760750182706,-4263.92879758279));
#801=CARTESIAN_POINT('',(-47647.1549460206,960.760750182706,-4263.92879758279));
#802=CARTESIAN_POINT('',(46416.8957575324,-960.760750182706,-4263.92879758278));
#803=CARTESIAN_POINT('',(46416.8957575324,-1535.51121729534,-4263.92879758278));
#804=CARTESIAN_POINT('',(46416.8957575324,0.,-4263.92879758278));
#805=CARTESIAN_POINT('',(46416.8957575324,446.531779231915,-4263.92879758278));
#806=CARTESIAN_POINT('',(-46883.2295715063,-1535.51121729534,-4263.92879758278));
#807=CARTESIAN_POINT('',(-46883.2295715063,-960.760750182706,-4263.92879758278));
#808=CARTESIAN_POINT('',(-46883.2295715063,0.,-4263.9287975828));
#809=CARTESIAN_POINT('',(-46883.2295715063,446.531779231915,-4263.92879758278));
#810=CARTESIAN_POINT('',(46416.8957575324,-1535.51121729534,-5267.16234150938));
#811=CARTESIAN_POINT('',(46416.8957575324,446.531779231915,-5267.16234150938));
#812=CARTESIAN_POINT('',(-46883.2295715063,-1535.51121729534,-5267.16234150938));
#813=CARTESIAN_POINT('',(-46883.2295715063,446.531779231915,-5267.16234150938));
#814=CARTESIAN_POINT('',(46930.1221631745,-1535.51121729534,4122.83817857703));
#815=CARTESIAN_POINT('',(46930.1221631745,-960.760750182706,4122.83817857703));
#816=CARTESIAN_POINT('',(46930.1221631745,7.105427357601E-15,4122.83817857703));
#817=CARTESIAN_POINT('',(46930.1221631745,446.531779231915,4122.83817857703));
#818=CARTESIAN_POINT('',(-46370.0031658641,-960.760750182706,4122.83817857703));
#819=CARTESIAN_POINT('',(-46370.0031658641,-1535.51121729534,4122.83817857703));
#820=CARTESIAN_POINT('',(-46370.0031658641,-1.13686837721616E-13,4122.83817857703));
#821=CARTESIAN_POINT('',(-46370.0031658641,446.531779231915,4122.83817857703));
#822=CARTESIAN_POINT('',(46930.1221631745,-1535.51121729534,4396.76306759518));
#823=CARTESIAN_POINT('',(-46370.0031658641,-1535.51121729534,4396.76306759518));
#824=CARTESIAN_POINT('',(46930.1221631745,-1535.51121729534,4396.76306759518));
#825=CARTESIAN_POINT('',(46930.1221631745,446.531779231915,4396.76306759518));
#826=CARTESIAN_POINT('',(46930.1221631745,446.531779231915,4396.76306759518));
#827=CARTESIAN_POINT('',(-46370.0031658641,446.531779231915,4396.76306759518));
#828=CARTESIAN_POINT('',(-46370.0031658641,-1535.51121729534,4396.76306759518));
#829=CARTESIAN_POINT('',(-46370.0031658641,446.531779231915,4396.76306759518));
#830=CARTESIAN_POINT('',(46930.1221631745,-1535.51121729534,4396.76306759518));
#831=CARTESIAN_POINT('',(46930.1221631745,-1535.51121729534,4122.83817857703));
#832=CARTESIAN_POINT('',(46930.1221631745,446.531779231915,4396.76306759518));
#833=CARTESIAN_POINT('',(46930.1221631745,446.531779231915,4122.83817857703));
#834=CARTESIAN_POINT('',(-46370.0031658641,-1535.51121729534,5352.17171555887));
#835=CARTESIAN_POINT('',(46930.1221631745,-1535.51121729534,5352.17171555887));
#836=CARTESIAN_POINT('',(46930.1221631745,-1535.51121729534,5352.17171555887));
#837=CARTESIAN_POINT('',(46930.1221631745,446.531779231915,5352.17171555887));
#838=CARTESIAN_POINT('',(-46370.0031658641,446.531779231915,5352.17171555887));
#839=CARTESIAN_POINT('',(46930.1221631745,446.531779231915,5352.17171555887));
#840=CARTESIAN_POINT('',(-46370.0031658641,-1535.51121729534,5352.17171555887));
#841=CARTESIAN_POINT('',(-46370.0031658641,446.531779231915,5352.17171555887));
#842=CARTESIAN_POINT('',(46930.1221631745,-1535.51121729534,5352.17171555887));
#843=CARTESIAN_POINT('',(46930.1221631745,-1535.51121729534,4396.76306759518));
#844=CARTESIAN_POINT('',(46930.1221631745,446.531779231915,5352.17171555887));
#845=CARTESIAN_POINT('',(46930.1221631745,446.531779231915,4396.76306759518));
#846=CARTESIAN_POINT('',(-46370.0031658641,-1535.51121729534,4396.76306759518));
#847=CARTESIAN_POINT('',(-46370.0031658641,-1535.51121729534,5352.17171555887));
#848=CARTESIAN_POINT('',(-46370.0031658641,446.531779231915,4396.76306759518));
#849=CARTESIAN_POINT('',(-46370.0031658641,446.531779231915,5352.17171555887));
#850=CARTESIAN_POINT('',(46416.8957575324,-1535.51121729534,-4311.75369354568));
#851=CARTESIAN_POINT('',(46416.8957575324,446.531779231915,-4311.75369354568));
#852=CARTESIAN_POINT('',(-46883.2295715063,-1535.51121729534,-4311.75369354568));
#853=CARTESIAN_POINT('',(46416.8957575324,-1535.51121729534,-4311.75369354568));
#854=CARTESIAN_POINT('',(-46883.2295715063,-1535.51121729534,-4311.75369354568));
#855=CARTESIAN_POINT('',(-46883.2295715063,446.531779231915,-4311.75369354568));
#856=CARTESIAN_POINT('',(-46883.2295715063,446.531779231915,-4311.75369354568));
#857=CARTESIAN_POINT('',(46416.8957575324,446.531779231915,-4311.75369354568));
#858=CARTESIAN_POINT('',(-46883.2295715063,-1535.51121729534,-4311.75369354568));
#859=CARTESIAN_POINT('',(-46883.2295715063,-1535.51121729534,-4263.92879758278));
#860=CARTESIAN_POINT('',(-46883.2295715063,446.531779231915,-4311.75369354568));
#861=CARTESIAN_POINT('',(-46883.2295715063,446.531779231915,-4263.92879758278));
#862=CARTESIAN_POINT('',(-47647.1549460206,-2882.28225054812,4122.83817857703));
#863=CARTESIAN_POINT('',(47937.0496269847,-2882.28225054812,4122.83817857703));
#864=CARTESIAN_POINT('',(47937.0496269847,-2882.28225054812,4122.83817857703));
#865=CARTESIAN_POINT('',(47937.0496269847,-1921.52150036541,4122.83817857703));
#866=CARTESIAN_POINT('',(-47647.1549460206,-1921.52150036541,4122.83817857703));
#867=CARTESIAN_POINT('',(47937.0496269847,-1921.52150036541,4122.83817857703));
#868=CARTESIAN_POINT('',(-47647.1549460206,-2882.28225054812,4122.83817857703));
#869=CARTESIAN_POINT('',(-47647.1549460206,-1921.52150036541,4122.83817857703));
#870=CARTESIAN_POINT('',(47937.0496269847,-2882.28225054812,4122.83817857703));
#871=CARTESIAN_POINT('',(47937.0496269847,-2882.28225054812,-4263.92879758279));
#872=CARTESIAN_POINT('',(47937.0496269847,-2882.28225054812,-4263.92879758279));
#873=CARTESIAN_POINT('',(47937.0496269847,-1921.52150036541,-4263.92879758279));
#874=CARTESIAN_POINT('',(47937.0496269847,-1921.52150036541,4122.83817857703));
#875=CARTESIAN_POINT('',(47937.0496269847,-1921.52150036541,-4263.92879758279));
#876=CARTESIAN_POINT('',(47937.0496269847,-2882.28225054812,-4263.92879758279));
#877=CARTESIAN_POINT('',(-47647.1549460206,-2882.28225054812,-4263.92879758279));
#878=CARTESIAN_POINT('',(-47647.1549460206,-2882.28225054812,-4263.92879758279));
#879=CARTESIAN_POINT('',(-47647.1549460206,-1921.52150036541,-4263.92879758279));
#880=CARTESIAN_POINT('',(47937.0496269847,-1921.52150036541,-4263.92879758279));
#881=CARTESIAN_POINT('',(-47647.1549460206,-1921.52150036541,-4263.92879758279));
#882=CARTESIAN_POINT('',(-47647.1549460206,-2882.28225054812,-4263.92879758279));
#883=CARTESIAN_POINT('',(-47647.1549460206,-2882.28225054812,4122.83817857703));
#884=CARTESIAN_POINT('',(-47647.1549460206,-1921.52150036541,-4263.92879758279));
#885=CARTESIAN_POINT('',(-47647.1549460206,-1921.52150036541,4122.83817857703));
#886=CARTESIAN_POINT('',(47937.0496269847,-1921.52150036541,4122.83817857703));
#887=CARTESIAN_POINT('',(47937.0496269847,-960.760750182706,4122.83817857703));
#888=CARTESIAN_POINT('',(-47647.1549460206,-960.760750182706,4122.83817857703));
#889=CARTESIAN_POINT('',(-46370.0031658641,-960.760750182706,4122.83817857703));
#890=CARTESIAN_POINT('',(-47647.1549460206,-1921.52150036541,4122.83817857703));
#891=CARTESIAN_POINT('',(-47647.1549460206,-960.760750182706,4122.83817857703));
#892=CARTESIAN_POINT('',(47937.0496269847,-1921.52150036541,-4263.92879758279));
#893=CARTESIAN_POINT('',(47937.0496269847,-960.760750182706,-4263.92879758279));
#894=CARTESIAN_POINT('',(47937.0496269847,-960.760750182706,4122.83817857703));
#895=CARTESIAN_POINT('',(47937.0496269847,-960.760750182706,-4263.92879758279));
#896=CARTESIAN_POINT('',(-47647.1549460206,-1921.52150036541,-4263.92879758279));
#897=CARTESIAN_POINT('',(-47647.1549460206,-960.760750182706,-4263.92879758279));
#898=CARTESIAN_POINT('',(47937.0496269847,-960.760750182706,-4263.92879758279));
#899=CARTESIAN_POINT('',(46416.8957575324,-960.760750182706,-4263.92879758278));
#900=CARTESIAN_POINT('',(-47647.1549460206,-960.760750182706,-4263.92879758279));
#901=CARTESIAN_POINT('',(-47647.1549460206,-960.760750182706,4122.83817857703));
#902=CARTESIAN_POINT('',(47937.0496269847,-960.760750182706,4122.83817857703));
#903=CARTESIAN_POINT('',(47937.0496269847,0.,4122.83817857703));
#904=CARTESIAN_POINT('',(-47647.1549460206,0.,4122.83817857703));
#905=CARTESIAN_POINT('',(-46370.0031658641,-1.13686837721616E-13,4122.83817857703));
#906=CARTESIAN_POINT('',(-47647.1549460206,-960.760750182706,4122.83817857703));
#907=CARTESIAN_POINT('',(-47647.1549460206,0.,4122.83817857703));
#908=CARTESIAN_POINT('',(47937.0496269847,-960.760750182706,-4263.92879758279));
#909=CARTESIAN_POINT('',(47937.0496269847,0.,-4263.92879758279));
#910=CARTESIAN_POINT('',(47937.0496269847,0.,4122.83817857703));
#911=CARTESIAN_POINT('',(47937.0496269847,0.,-4263.92879758279));
#912=CARTESIAN_POINT('',(-47647.1549460206,-960.760750182706,-4263.92879758279));
#913=CARTESIAN_POINT('',(-47647.1549460206,0.,-4263.92879758279));
#914=CARTESIAN_POINT('',(47937.0496269847,0.,-4263.92879758279));
#915=CARTESIAN_POINT('',(46416.8957575324,0.,-4263.92879758278));
#916=CARTESIAN_POINT('',(-47647.1549460206,0.,-4263.92879758279));
#917=CARTESIAN_POINT('',(-47647.1549460206,0.,4122.83817857703));
#918=CARTESIAN_POINT('',(47937.0496269847,0.,4122.83817857703));
#919=CARTESIAN_POINT('',(47937.0496269847,960.760750182706,4122.83817857703));
#920=CARTESIAN_POINT('',(-47647.1549460206,960.760750182706,4122.83817857703));
#921=CARTESIAN_POINT('',(47937.0496269847,960.760750182706,4122.83817857703));
#922=CARTESIAN_POINT('',(-47647.1549460206,0.,4122.83817857703));
#923=CARTESIAN_POINT('',(-47647.1549460206,960.760750182706,4122.83817857703));
#924=CARTESIAN_POINT('',(47937.0496269847,0.,-4263.92879758279));
#925=CARTESIAN_POINT('',(47937.0496269847,960.760750182706,-4263.92879758279));
#926=CARTESIAN_POINT('',(47937.0496269847,960.760750182706,4122.83817857703));
#927=CARTESIAN_POINT('',(47937.0496269847,960.760750182706,-4263.92879758279));
#928=CARTESIAN_POINT('',(-47647.1549460206,0.,-4263.92879758279));
#929=CARTESIAN_POINT('',(-47647.1549460206,960.760750182706,-4263.92879758279));
#930=CARTESIAN_POINT('',(47937.0496269847,960.760750182706,-4263.92879758279));
#931=CARTESIAN_POINT('',(-47647.1549460206,960.760750182706,-4263.92879758279));
#932=CARTESIAN_POINT('',(-47647.1549460206,960.760750182706,-4263.92879758279));
#933=CARTESIAN_POINT('',(-47647.1549460206,960.760750182706,4122.83817857703));
#934=CARTESIAN_POINT('',(46416.8957575324,-960.760750182706,-4263.92879758278));
#935=CARTESIAN_POINT('',(46416.8957575324,-1535.51121729534,-4263.92879758278));
#936=CARTESIAN_POINT('',(46416.8957575324,0.,-4263.92879758278));
#937=CARTESIAN_POINT('',(46416.8957575324,-960.760750182706,-4263.92879758278));
#938=CARTESIAN_POINT('',(46416.8957575324,446.531779231915,-4263.92879758278));
#939=CARTESIAN_POINT('',(46416.8957575324,0.,-4263.92879758278));
#940=CARTESIAN_POINT('',(-46883.2295715063,-1535.51121729534,-4263.92879758278));
#941=CARTESIAN_POINT('',(-46883.2295715063,-960.760750182706,-4263.92879758278));
#942=CARTESIAN_POINT('',(-46883.2295715063,-960.760750182706,-4263.92879758278));
#943=CARTESIAN_POINT('',(-46883.2295715063,0.,-4263.9287975828));
#944=CARTESIAN_POINT('',(-46883.2295715063,0.,-4263.9287975828));
#945=CARTESIAN_POINT('',(-46883.2295715063,446.531779231915,-4263.92879758278));
#946=CARTESIAN_POINT('',(-46883.2295715063,-1535.51121729534,-4263.92879758278));
#947=CARTESIAN_POINT('',(46416.8957575324,-1535.51121729534,-4263.92879758278));
#948=CARTESIAN_POINT('',(-46883.2295715063,446.531779231915,-4263.92879758278));
#949=CARTESIAN_POINT('',(46416.8957575324,446.531779231915,-4263.92879758278));
#950=CARTESIAN_POINT('',(46416.8957575324,-1535.51121729534,-4263.92879758278));
#951=CARTESIAN_POINT('',(46416.8957575324,-1535.51121729534,-4311.75369354568));
#952=CARTESIAN_POINT('',(46416.8957575324,446.531779231915,-4263.92879758278));
#953=CARTESIAN_POINT('',(46416.8957575324,446.531779231915,-4311.75369354568));
#954=CARTESIAN_POINT('',(-46883.2295715063,-960.760750182706,-4263.92879758278));
#955=CARTESIAN_POINT('',(-47647.1549460206,-960.760750182706,-4263.92879758279));
#956=CARTESIAN_POINT('',(-46883.2295715063,0.,-4263.9287975828));
#957=CARTESIAN_POINT('',(-47647.1549460206,0.,-4263.92879758279));
#958=CARTESIAN_POINT('',(46416.8957575324,-1535.51121729534,-4311.75369354568));
#959=CARTESIAN_POINT('',(46416.8957575324,-1535.51121729534,-5267.16234150938));
#960=CARTESIAN_POINT('',(46416.8957575324,-1535.51121729534,-5267.16234150938));
#961=CARTESIAN_POINT('',(46416.8957575324,446.531779231915,-5267.16234150938));
#962=CARTESIAN_POINT('',(46416.8957575324,446.531779231915,-4311.75369354568));
#963=CARTESIAN_POINT('',(46416.8957575324,446.531779231915,-5267.16234150938));
#964=CARTESIAN_POINT('',(46416.8957575324,-1535.51121729534,-5267.16234150938));
#965=CARTESIAN_POINT('',(-46883.2295715063,-1535.51121729534,-5267.16234150938));
#966=CARTESIAN_POINT('',(-46883.2295715063,-1535.51121729534,-5267.16234150938));
#967=CARTESIAN_POINT('',(-46883.2295715063,446.531779231915,-5267.16234150938));
#968=CARTESIAN_POINT('',(46416.8957575324,446.531779231915,-5267.16234150938));
#969=CARTESIAN_POINT('',(-46883.2295715063,446.531779231915,-5267.16234150938));
#970=CARTESIAN_POINT('',(-46883.2295715063,-1535.51121729534,-5267.16234150938));
#971=CARTESIAN_POINT('',(-46883.2295715063,-1535.51121729534,-4311.75369354568));
#972=CARTESIAN_POINT('',(-46883.2295715063,446.531779231915,-5267.16234150938));
#973=CARTESIAN_POINT('',(-46883.2295715063,446.531779231915,-4311.75369354568));
#974=CARTESIAN_POINT('',(46930.1221631745,-1535.51121729534,4122.83817857703));
#975=CARTESIAN_POINT('',(46930.1221631745,-960.760750182706,4122.83817857703));
#976=CARTESIAN_POINT('',(46930.1221631745,-960.760750182706,4122.83817857703));
#977=CARTESIAN_POINT('',(46930.1221631745,7.105427357601E-15,4122.83817857703));
#978=CARTESIAN_POINT('',(46930.1221631745,7.105427357601E-15,4122.83817857703));
#979=CARTESIAN_POINT('',(46930.1221631745,446.531779231915,4122.83817857703));
#980=CARTESIAN_POINT('',(-46370.0031658641,-960.760750182706,4122.83817857703));
#981=CARTESIAN_POINT('',(-46370.0031658641,-1535.51121729534,4122.83817857703));
#982=CARTESIAN_POINT('',(-46370.0031658641,-1.13686837721616E-13,4122.83817857703));
#983=CARTESIAN_POINT('',(-46370.0031658641,-960.760750182706,4122.83817857703));
#984=CARTESIAN_POINT('',(-46370.0031658641,446.531779231915,4122.83817857703));
#985=CARTESIAN_POINT('',(-46370.0031658641,-1.13686837721616E-13,4122.83817857703));
#986=CARTESIAN_POINT('',(46930.1221631745,-1535.51121729534,4122.83817857703));
#987=CARTESIAN_POINT('',(-46370.0031658641,-1535.51121729534,4122.83817857703));
#988=CARTESIAN_POINT('',(46930.1221631745,446.531779231915,4122.83817857703));
#989=CARTESIAN_POINT('',(-46370.0031658641,446.531779231915,4122.83817857703));
#990=CARTESIAN_POINT('',(-46370.0031658641,-1535.51121729534,4122.83817857703));
#991=CARTESIAN_POINT('',(-46370.0031658641,-1535.51121729534,4396.76306759518));
#992=CARTESIAN_POINT('',(-46370.0031658641,446.531779231915,4122.83817857703));
#993=CARTESIAN_POINT('',(-46370.0031658641,446.531779231915,4396.76306759518));
#994=CARTESIAN_POINT('',(46930.1221631745,-960.760750182706,4122.83817857703));
#995=CARTESIAN_POINT('',(47937.0496269847,-960.760750182706,4122.83817857703));
#996=CARTESIAN_POINT('',(46930.1221631745,7.105427357601E-15,4122.83817857703));
#997=CARTESIAN_POINT('',(47937.0496269847,0.,4122.83817857703));
#998=CARTESIAN_POINT('',(0.,0.,0.));
ENDSEC;
END-ISO-10303-21;
